<?xml version="1.0" standalone="no"?> 
<!DOCTYPE svg PUBLIC "-//W3C//DTD SVG 1.1//EN" "http://www.w3.org/Graphics/SVG/1.1/DTD/svg11.dtd" >
<svg xmlns="http://www.w3.org/2000/svg">
<defs>
  <font id="all" horiz-adv-x="1024">
    <font-face font-family="all"
      units-per-em="1024" ascent="1024"
      descent="0" />
    <missing-glyph horiz-adv-x="0" />
    <glyph glyph-name="chuangfuapp_analysis_broadcast"
      unicode="&#xE000;"
      horiz-adv-x="1024" d=" M121.5 894.4C95.2 889.7 72.6 877.8 53.4 858.6C33.9 839.1 22.2 816.5 17.5 789.6C16.2 781.8 16 748.9 16 512C16 275.1 16.2 242.2 17.5 234.4C22.2 207.5 33.9 184.9 53.4 165.4S95.5 134.2 122.4 129.5C130.2 128.2 164.7 128 416 128S701.8 128.2 709.6 129.5C736.5 134.2 759.1 145.9 778.6 165.4C796.5 183.3 807.4 203 813.7 228.7C815.1 234.5 815.4 244.3 815.9 294.7L816.5 353.9L891.5 321.2L966.5 288.5H976C987.5 288.5 992.7 290.7 999.9 298.6C1008.8 308.3 1008 287.7 1008 512S1008.8 715.7 999.9 725.4C992.7 733.3 987.5 735.5 976 735.5H966.5L891.5 702.8L816.5 670.1L815.9 729.3C815.4 779.7 815.1 789.5 813.7 795.3C807.4 821 796.5 840.7 778.6 858.6C759.1 878.1 736.5 889.8 709.6 894.5C701.8 895.8 667.5 896 415.1 895.9C171.6 895.8 128.3 895.6 121.5 894.4zM703.5 829.7C726.3 823.1 743.7 805.6 749.7 783C751.4 776.9 751.5 761 751.5 512S751.4 247.1 749.7 241A65.99 65.99 0 0 0 703 194.3C696.9 192.6 680.2 192.5 416 192.5S135.1 192.6 129 194.3A65.99 65.99 0 0 0 82.3 241C80.6 247.1 80.5 263 80.5 512S80.6 776.9 82.3 783C85.3 794.3 90.7 803.7 99 812.1C109.8 823.1 121.6 829 136.2 830.9C139.6 831.4 267.4 831.7 420 831.6C681.4 831.5 697.8 831.4 703.5 829.7zM944 512C944 433.9 943.7 370 943.2 370C942.8 370 914.1 382.3 879.5 397.4L816.5 424.8V599.2L879 626.5C913.4 641.5 942.1 653.8 942.8 653.9C943.7 654 944 625 944 512zM240 734.5C216.7 728 199.3 710.3 193.4 687C191 677.4 191.8 659.8 195.2 650.8C202.3 631.9 215.7 618.5 234.8 611.2C240.9 608.8 242.8 608.6 256 608.6S271.1 608.8 277.2 611.2C296.9 618.7 311.3 633.5 317.3 652.5C319.1 658.4 319.5 661.7 319.4 673C319.4 685 319.1 687.3 316.8 693.2C309.6 712.2 296.1 725.7 277.2 732.8C268.6 736 248.8 736.9 240 734.5z" />
    <glyph glyph-name="chuangfuapp_analysis_deceleration"
      unicode="&#xE001;"
      horiz-adv-x="1024" d=" M520.068 928.985C748.513 928.985 933.764 743.735 933.764 515.258C933.794 286.751 748.544 101.5 520.037 101.5C291.56 101.5 106.31 286.751 106.31 515.258C106.31 743.734 291.56 928.985 520.037 928.985zM740.693 556.622H299.38V473.864H740.693V556.622z" />
    <glyph glyph-name="chuangfuapp_analysis_deceleration2"
      unicode="&#xE002;"
      horiz-adv-x="1024" d=" M503.312 928.985C731.756 928.985 917.008 743.735 917.008 515.258C917.038 286.751 731.788 101.5 503.28 101.5C274.805 101.5 89.555 286.751 89.555 515.258C89.553 743.734 274.803 928.985 503.28 928.985zM723.937 556.622H282.624V473.864H723.937V556.622z" />
    <glyph glyph-name="chuangfuapp_analysis_fans"
      unicode="&#xE003;"
      horiz-adv-x="1024" d=" M465.5 958.5C414.8 951.3 370.9 930.1 335.2 895.6C295.7 857.3 271.9 808.8 266 754.3C264.2 737.8 265.2 705.9 268 690C287.6 578.9 383 499 495.9 499C567.8 499 636.9 533.3 679.1 590C690.4 605.2 695 612.7 703.1 629.3C749 723.3 724.3 838.9 644.1 906.2C612.6 932.6 575.7 949.7 534 957.2C518.9 959.9 480.6 960.6 465.5 958.5zM517.5 893.9C553.9 889 586.8 872.4 613.5 845.5C666.9 791.5 676.5 708 636.8 643.3C595.6 575.9 512.3 546.8 438.2 574C397.7 588.8 364.2 619.7 345.3 659.5C329.6 692.5 325.5 732.8 334.1 768.5C349.2 830.5 399.7 879.3 462 892C480 895.7 498.9 896.3 517.5 893.9zM692.2 400C628.2 391.9 581 339.8 581 277.2C581 246.7 590.7 219.8 609.7 197.4C616.3 189.5 746.6 62.9 751.2 59.7C763.2 51.7 781.4 52.2 792.9 60.8C797.5 64.3 900.1 163.7 923.5 187.4C942.7 206.8 952.1 223 958.7 247.9C961 256.3 961.3 259.7 961.4 275C961.5 297.8 959.1 309.7 950.5 328.6C939.4 352.9 916.5 376 891.5 387.9C872.8 396.9 857.2 400.3 835.5 400.4C814 400.4 798.4 396.9 779.3 388L771.1 384.2L763.7 387.9C755 392.3 742.3 396.5 731.3 398.6C721.4 400.5 701.7 401.2 692.2 400zM728.8 335.7C739.1 332.1 744.7 328.4 758.5 316.4C765.1 310.7 770.9 306 771.3 306C771.8 306 777.6 310.6 784.1 316.3C805.5 334.7 814.3 338.5 835.5 338.5C850.6 338.5 858.2 336.6 868.9 330.3C876.7 325.6 887.4 315.2 891.8 307.8C903.2 288.6 903.2 264.4 891.8 245.2C889.5 241.3 871.4 223 830.1 182.6C798 151.2 771.5 125.6 771.3 125.7C770.7 125.8 714.8 180.2 678.5 216C651.6 242.3 648.6 246.3 644.4 260.5C641.7 269.5 641.9 284.4 644.9 294C651.3 314.8 668.6 331.2 690.3 337.1C700.9 339.9 718.7 339.3 728.8 335.7zM279.3 390.4C213.3 382.4 155.4 346.2 123 292.5C112 274.4 104.4 254.7 99.3 231.7L96.6 219.5L96.3 136.3L95.9 53H160.9L161.2 143.2L161.5 233.5L163.9 240.5C171 261.7 186.4 280.5 209.7 296.1C228.7 308.8 251.2 318 275.6 323.2L286.5 325.5L398.8 325.8L511 326.1V392L400.8 391.9C314.4 391.8 288.1 391.5 279.3 390.4z" />
    <glyph glyph-name="chuangfuapp_analysis_plus"
      unicode="&#xE004;"
      horiz-adv-x="1024" d=" M468 667.5V543H220V481H468V232H531V481H779V543H531V792H468V667.5z" />
    <glyph glyph-name="chuangfuapp_analysis_profit"
      unicode="&#xE005;"
      horiz-adv-x="1024" d=" M469.5 971.9C340.9 961.7 225.6 900.3 145.4 799.5C81.8 719.6 47 619.3 47 515.9C47 426.1 72.7 339.8 121.6 265.5C156 213.2 199 169.8 250.5 135.6C327.1 84.6 412 59 504 59C574.6 59 639 73.6 702.8 104.1C771.2 136.7 832.8 188.8 877.7 252C916.5 306.6 944.1 373.5 955 439.5C959.7 468.3 960.5 479 960.5 516S959.7 563.8 954.9 592.5C936.1 706.2 872.5 810.9 779.5 881C715.4 929.3 641.2 959.5 562.5 969.4C534.6 972.9 495.3 974 469.5 971.9zM554.7 906.1C643.1 893.8 720.3 855.7 782 794C826.3 749.7 857.9 698.6 877.5 639.5C892.8 593.7 899 547.9 896.8 497.4C892 383.4 836.5 276.5 745.3 205.3C681.2 155.3 602 126.2 521.4 123.2C491.3 122 461.1 123.9 435 128.6C351.1 143.7 273.6 186.1 215.7 248.7C157.9 311.3 123.5 386.5 112.8 474C110.8 490.6 111.1 545 113.3 562.5C123.5 641.9 155.7 714.5 206.6 773C216.5 784.4 238.5 806.3 249.5 815.7C307.5 865.2 380.5 897.1 457 906.5C475.6 908.7 477 908.8 509.5 908.5C533.4 908.3 542.6 907.8 554.7 906.1zM383 707C370.6 695.5 360.4 685.7 360.3 685.3C360.1 684.9 379 664.3 402.1 639.5L444.2 594.5L390.1 594.2L336 594V530H472V456H336V393H472V272H536V393H672V456H536V530H672V594L618.3 594.2L564.6 594.5L603.4 635.5C624.8 658.1 644.1 678.4 646.2 680.6L650.2 684.7L627.4 706.4C614.9 718.3 604.2 728 603.6 727.9C602.7 727.8 541.8 664.2 512 632L504.4 623.9L456 675.7C429.4 704.2 407.1 727.6 406.6 727.8C406 727.9 395.4 718.6 383 707z" />
    <glyph glyph-name="chuangfuapp_analysis_sort"
      unicode="&#xE006;"
      horiz-adv-x="1024" d=" M68.887 685.925H937.736V592.834H68.887zM68.887 437.682H937.736V344.592H68.887z" />
    <glyph glyph-name="chuangfuapp_analysis_works"
      unicode="&#xE007;"
      horiz-adv-x="1024" d=" M169.5 917.3C135.9 911.3 105.9 891.3 86.6 862C75.5 845.3 69.2 827.1 67.1 806.1C65.6 791.7 65.6 232.3 67.1 217.9C72.1 168.2 105.3 126.9 152.8 111C172.2 104.6 146.2 105 512 105S851.8 104.6 871.2 111C918.7 126.9 951.9 168.2 956.9 217.9C958.4 232.3 958.4 791.7 956.9 806.1C951.9 855.8 918.8 897.1 871.4 912.9C851.8 919.4 878.3 919 511 918.9C225 918.8 176.4 918.6 169.5 917.3zM839.8 854C864.6 850.8 886.4 830.7 891.5 806.5C893.7 795.9 893.7 228.1 891.5 217.5C886.4 193.3 864.6 173.2 839.8 170C830 168.7 194 168.7 184.2 170C159.4 173.2 137.6 193.3 132.5 217.5C130.3 228.1 130.3 795.9 132.5 806.5C137.5 830.3 159.5 850.8 183.3 853.9C192.3 855.1 830.8 855.2 839.8 854zM439.3 633.6C428.9 630.2 420.5 622.8 415.4 612.5L412.5 606.5V417.5L415.3 411.8C419.4 403.4 426 396.6 433.8 392.8C440 389.7 441.2 389.5 450.5 389.5C459.6 389.5 461.1 389.8 466.6 392.5C474.9 396.6 596.1 479.3 601.2 484.4C603.5 486.7 606.7 491.4 608.4 495C611.3 501 611.5 502.3 611.5 512S611.3 523 608.4 529C606.7 532.6 603.5 537.3 601.4 539.5C596.5 544.5 474.9 627.4 466.6 631.5C461.6 633.9 459 634.5 452 634.7C446.7 634.9 441.9 634.5 439.3 633.6z" />
    <glyph glyph-name="chuangfuapp_collection_"
      unicode="&#xE008;"
      horiz-adv-x="1024" d=" M307.3 900C220 891.5 145.1 838.1 105.9 756.5C64.5 670.2 73.4 566.7 128.9 491C135 482.5 161.4 450.4 176.4 433C215.9 387.3 277.9 325 345.3 263.2C436.3 179.7 495.1 132 507 132C512.2 132 529.4 143.1 552.5 161.4C566.7 172.7 589.6 191.7 598.4 199.6L603.2 204L573.4 234.7C557 251.7 543.5 265.7 543.3 265.9C543.2 266.1 539.8 263.4 535.8 259.8C529.2 254 513.2 240.6 508.8 237.1C507.2 235.9 505.5 237.1 492.6 247.8C441.3 291 358.4 367.7 309 417.7C265.2 461.9 231.2 500 201.9 537.7C171.1 577.2 159.3 630 170.2 680C181.1 730.5 214.7 774.9 259 797.4C282.8 809.4 303.3 814.4 329 814.3C363.4 814.3 393.2 804.4 422.2 783.5C427.5 779.7 444.4 763.7 468.7 739.6L507 701.6L544.7 739.1C565.5 759.7 586 779.2 590.2 782.4C611.3 798 634.3 807.9 660.3 812.6C673.1 814.9 697.4 814.9 710.5 812.6C740.9 807.3 770.1 792.2 793.1 770.3C809.4 754.6 819.2 741.4 828.6 722.7C842.2 695.7 847.5 673 847.4 642C847.4 623.2 846.3 614 842.2 598.4L840.3 591.4L872.9 557.7L905.4 523.9L908.9 530.7C917.6 548 926.7 577 930.4 599C935.8 631.8 934.9 667.5 927.9 699.5C917.3 747.6 892.7 792.9 858.6 827.4C820 866.4 772.6 890.4 718 898.6C703.9 900.8 670 901 656 899.1C601.5 891.7 555.4 869.6 515.7 832L507 823.8L498.5 831.8C458.6 869.6 412.6 891.7 358.5 899C347.4 900.5 318.4 901.1 307.3 900zM799.8 390.1L718.3 311.2L674.6 354.9L631 398.5L605.3 372.7L579.5 347L648 278.5C685.7 240.8 717 210.1 717.6 210.2C719.5 210.7 931.5 416.2 931.5 417.6C931.5 418.9 883.3 469 882 469C881.6 469 844.6 433.5 799.8 390.1z" />
    <glyph glyph-name="chuangfuapp_first_even"
      unicode="&#xE009;"
      horiz-adv-x="1024" d=" M204.8 716.8H819.2V563.2H204.8z" />
    <glyph glyph-name="chuangfuapp_first_photosynthetic"
      unicode="&#xE00A;"
      horiz-adv-x="1024" d=" M857.5 955.3C782.9 951.5 714 934.7 660.3 907.4C625.3 889.6 596.4 868.4 569.5 840.8C521.6 791.8 491.2 734.2 477.5 666.6C475.6 657.3 473.9 649.6 473.7 649.4C473.5 649.2 471.1 652.3 468.4 656.2C456.8 673.2 440.7 691.7 425.2 705.7C379.1 747.3 325.9 771.3 259.8 780.2C246 782.1 238.7 782.4 212 782.5C180 782.5 168.5 781.8 141.5 777.9C126.4 775.7 101.1 771 89 768C84.9 767 80.3 765.9 78.9 765.6L76.2 765L75.5 751.8C74.7 735.1 76.4 696.1 79.1 672.6C86.4 607.4 104.8 554 135.6 508.3C146.2 492.6 153.7 483.3 167.5 469.1C229.1 405.6 313.8 374.9 413.3 379.9C432.3 380.9 454.9 383 463.8 384.6L467 385.2V204H253V104H781V204H567V417.7L577.8 418.4C621.4 421.3 671.9 431.6 711.5 445.7C783.1 471.1 842 515.3 883.5 574.6C917.7 623.4 937.3 676.2 945.6 742C947.7 759.2 948.6 811.2 947.1 832.2C944.6 865.7 938.9 903.4 931 937.4C928.8 946.8 927 954.8 927 955.2C927 955.9 871 956 857.5 955.3z" />
    <glyph glyph-name="chuangfuapp_first_task"
      unicode="&#xE00B;"
      horiz-adv-x="1024" d=" M281.8 926.1C267.4 921.4 255.8 909.5 251.6 895.1C250.3 890.7 250 884.3 250 862.8V836H225.1C184.9 836 166.5 833.9 151.7 827.5C140.1 822.6 133.6 818.4 124.8 810.1C111.4 797.6 103.3 783.1 98.8 763.5L96.6 753.5L96.2 473.5C96 268.4 96.2 190.4 97 182C98.6 166.3 101.1 157.2 107 145.5C116.1 127.5 127.4 116.1 145.5 107C156.6 101.4 166.6 98.6 181.2 97C194.7 95.6 829.3 95.6 842.8 97C857.4 98.6 867.4 101.4 878.5 107C896.6 116.1 907.9 127.5 917 145.5C922.9 157.2 925.4 166.3 927 182C927.8 190.4 928 268.4 927.8 473.5L927.4 753.5L925.2 763.2C918.4 792.8 901.8 813.8 875.6 826.1C859.6 833.6 840.9 836 798.9 836H774.1L773.8 864.8L773.5 893.5L770.3 900.3C766.1 909.2 762 914.3 754.7 919.6C744.1 927.4 740.6 928 704.1 928C673.4 928 672.3 927.9 665.8 925.6C654.5 921.6 645.3 913.5 640 903C635.5 894.2 635 890 635 862.3V836H389V861.8C389 881.7 388.7 888.9 387.5 893.5C383.9 907.1 375.1 917.6 362.3 923.8L354.5 927.5L321 927.7C290.7 927.9 287 927.8 281.8 926.1zM700.3 603.4L728.8 575.2L600.7 444.5L472.7 313.8L393.3 393.2L314 472.5L343 501.5L372 530.5L422.1 480.5L472.2 430.5L488.3 447.2C553.5 514.4 669.7 632 670.6 631.8C671.3 631.6 684.6 618.8 700.3 603.4z" />
    <glyph glyph-name="chuangfuapp_me_author_24"
      unicode="&#xE00C;"
      horiz-adv-x="1024" d=" M237.658 912.086C207.35 909.732 183.81 894.038 171.55 867.752C167.92 859.905 166.057 852.156 164.782 840.582C163.408 827.635 163.408 193.618 164.782 179.298C165.959 166.94 168.509 158.21 173.707 148.108C185.477 125.351 207.35 110.932 234.912 107.892C240.405 107.304 295.234 106.912 378.9 106.912H513.962V189.302H247.172V829.794H775.847V509.057H858.237L858.042 678.548L857.747 847.94L855.59 855.589C849.312 877.462 834.795 894.725 814.59 904.435C804.193 909.437 797.425 911.105 782.713 912.184C767.902 913.263 252.175 913.263 237.658 912.086zM330.544 676.782V635.586H692.475V717.977H330.544V676.782zM330.544 510.038V468.843H581.64V551.233H330.544V510.039zM684.923 365.56L561.14 247.663V182.73L561.042 117.701H628.034L694.927 117.8L818.023 235.01C885.701 299.55 941.217 352.613 941.413 353.005C941.707 353.986 811.451 482.967 809.882 483.261C809.195 483.36 752.993 430.394 684.922 365.561zM825.28 369.876L840.78 354.379L753.582 271.399L666.482 188.322H631.566L631.859 202.936L632.153 217.453L720.331 301.51C768.883 347.71 808.803 385.471 809.097 385.471C809.49 385.471 816.65 378.507 825.281 369.876z" />
    <glyph glyph-name="chuangfuapp_me_certification_24"
      unicode="&#xE00D;"
      horiz-adv-x="1024" d=" M501.7 923.5C494.9 922.3 484.7 918.9 477.9 915.4C471.6 912.3 195.6 752.4 183 744.7C162.2 731.8 145.9 708.4 142 685.3C141.3 680.9 141 623.9 141.2 498L141.5 317L144.4 308.5C150.3 290.8 159.6 276.8 172.4 266.3C178.9 261 466.1 93.7 480.4 86.9C492.6 81.1 501.6 79.2 517 79.2C532.4 79.2 541.4 81.1 553.6 86.9C562.3 91 850.8 258.5 857 263C862.7 267.2 873.7 278.6 877.9 284.8C882.8 292 887.7 303.1 890.2 312.5L892.5 321V682L890.2 690.5C884.7 711.4 871.9 730.2 855.5 741.5C850.1 745.2 563.1 911.9 556 915.5C549.2 918.9 539.4 922.1 531.6 923.4C524.8 924.6 508.8 924.7 501.7 923.5zM662.5 756.3C741.2 710.7 806.3 672.6 807.3 671.7C808.9 670.3 809 660.9 809 502C809 369 808.7 333.5 807.8 332.3C805.6 329.5 519.7 164 517 164C514.8 164 231.4 327.3 226.7 331.3C225.1 332.7 225 341.8 225.2 502.3L225.5 671.8L371 756.2C458.4 806.8 517.1 840.3 518 840C518.8 839.6 583.9 802 662.5 756.3zM331.2 591.2C315.2 575.2 302 561.5 302 561C302 559.7 515.2 346.5 516.5 346.5C517.1 346.5 565.8 394.8 624.8 453.8L732 561L702 591L672 621L594.2 543.2L516.5 465.5L439 543C396.4 585.6 361.3 620.5 361 620.5C360.7 620.5 347.3 607.3 331.2 591.2z" />
    <glyph glyph-name="chuangfuapp_me_continue"
      unicode="&#xE00E;"
      horiz-adv-x="1024" d=" M495.228 875.402C483.752 873.54 475.807 871.48 465.9 867.556C459.721 865.2 147.42 711.503 93.474 684.334L86.412 680.705L104.264 644.315C114.072 624.308 122.605 607.73 123.194 607.437C123.782 607.24 207.252 648.141 308.867 698.36C410.385 748.481 496.208 790.461 499.543 791.54C511.803 795.562 525.438 795.071 537.993 790.07C541.228 788.696 613.614 750.737 698.85 705.619C784.086 660.498 855.295 622.834 857.06 621.951L860.395 620.286L693.358 527.595C601.453 476.69 525.732 434.905 525.045 434.71C524.36 434.513 485.713 451.874 439.123 473.355C392.631 494.737 351.24 513.373 347.218 514.746C341.138 516.806 337.998 517.296 328.582 517.296C315.242 517.396 308.28 515.827 296.215 509.94C284.543 504.153 272.87 492.481 267.084 480.613C259.433 464.919 259.825 471.785 260.12 351.142L260.512 243.739L262.67 236.187C272.674 201.563 297.097 174.296 328.877 162.33C332.604 160.956 344.276 157.62 354.869 154.973C402.439 143.105 446.578 136.926 495.326 135.553C560.257 133.688 616.558 139.082 681.294 153.403C723.372 162.82 739.164 169.98 757.21 188.224C776.043 207.155 786.244 229.028 788.598 255.51C789.186 261.689 789.578 312.987 789.578 376.25V486.204L852.157 520.828C886.486 539.856 917.284 557.315 920.62 559.669C931.212 567.123 940.236 578.305 945.73 590.958C955.733 613.615 952.987 642.452 938.863 662.952C934.449 669.425 925.327 678.252 918.657 682.569C912.772 686.296 600.962 851.568 580.66 861.67C568.497 867.752 558.002 871.48 545.839 874.127C534.07 876.677 507.096 877.364 495.228 875.402zM706.207 349.474C706.207 261.002 706.109 259.334 704.147 255.02C701.793 249.723 697.183 244.72 692.377 242.27C684.825 238.344 640.294 228.732 609.103 224.22C557.903 216.864 501.31 215.785 452.17 221.18C414.995 225.397 361.93 236.774 353.692 242.365C349.278 245.31 344.864 251.39 343.393 256.49C342.51 259.335 342.314 282.777 342.51 343.393L342.805 426.373L419.31 391.16C461.39 371.838 498.366 355.065 501.505 354.084C516.12 349.278 533.873 349.376 548.88 354.281C553 355.654 585.073 372.916 630.192 397.928C671.19 420.683 705.03 439.319 705.52 439.319C705.913 439.418 706.207 398.91 706.207 349.474zM208.135 592.331C179.396 578.403 153.502 565.456 150.559 563.494C142.222 557.904 133.002 547.31 128.196 537.698L124.076 529.361L123.783 448.539L123.586 367.817H204.016L204.211 433.14L204.506 498.464L248.349 519.651C272.38 531.42 292.39 541.229 292.684 541.523C293.076 541.818 291.997 545.153 290.428 548.88C287.093 557.119 260.806 617.342 260.61 617.539C260.512 617.637 236.874 606.259 208.135 592.33z" />
    <glyph glyph-name="chuangfuapp_me_distribution_24"
      unicode="&#xE00F;"
      horiz-adv-x="1024" d=" M489 910C438 903.7 392.3 879.1 360.1 840.5C312.4 783.3 300.9 704 330.3 635.8C354.2 580.1 403.2 538 461.3 523C478 518.8 492.7 517 511.8 517C538.1 517 558.1 520.6 581.5 529.5C676.9 565.7 728.3 667.7 701.4 767C681.6 840.1 619.7 895.6 543.5 908.6C532.8 910.4 499.7 911.3 489 910zM531.4 826.5C577.2 818.5 613.7 782.8 623.5 736.5C628.4 713.1 624.9 684.7 614.3 663.5C596.6 628.2 561.6 604 522.4 600.1C492.7 597.1 463.5 605.9 439.6 624.9C407.9 650.1 391.6 692.9 398.5 732.6C400.3 742.6 404.7 756.4 408.6 764.2C424.6 796.2 456.3 820.2 490.6 826.4C501.2 828.3 520.7 828.3 531.4 826.5zM632 453C619.1 440.9 608.4 430.7 608.3 430.3C608.1 429.9 620.2 416.5 635.2 400.5L662.3 371.5L632.6 371.2L603 371V304H696V268H603V202H696V121H762V202H854V268H762V304H854V371L825 371.2L796 371.5L819.6 396.5C832.6 410.3 845 423.4 847.2 425.6L851.1 429.7L827.5 452.1C814.5 464.4 803.6 474.6 803.1 474.8C802.7 474.9 786 457.8 766 436.8C746.1 415.7 729.4 398.5 729 398.5C728.5 398.5 712.1 415.7 692.5 436.8C672.8 457.8 656.5 475 656.1 475C655.8 475 644.9 465.1 632 453zM263 402.5C244.7 394.9 227.5 383.3 212 368C189.5 345.8 175.6 322.1 167.5 292.5C162.3 273.2 162 268.6 162 192V121H243.9L244.2 191.2C244.6 259.9 244.6 261.7 246.8 269.5C253.4 293.4 270.7 314.6 292.3 324.9C309 332.9 300.5 332.4 412.3 332.7L512 333.1V406H271.5L263 402.5z" />
    <glyph glyph-name="chuangfuapp_me_drafts_24"
      unicode="&#xE010;"
      horiz-adv-x="1024" d=" M119.2 865.9C103.9 862.9 90.5 850.1 86.4 834.6C85.2 830.3 85 778.7 85 518.3C85 216.4 85.1 207 86.9 201.1C91.7 185.6 103.3 174.7 118.6 171.5C129 169.3 895 169.3 905.4 171.5C921.1 174.8 933.3 186.6 937.5 202.5C938.8 207.8 939 239.1 939 479S938.8 750.2 937.5 755.5C933.2 771.8 920.4 783.9 904 787C900.6 787.6 831.1 788 705.4 788H512.1L456.8 827.5L401.5 867L262.5 866.9C186.1 866.8 121.6 866.4 119.2 865.9zM428.6 741.5L483.9 702H853V256H171V781H373.3L428.6 741.5zM625 370V327H797V413H625V370z" />
    <glyph glyph-name="chuangfuapp_me_effect_24"
      unicode="&#xE011;"
      horiz-adv-x="1024" d=" M489.44 923.365C486.499 922.581 481.203 920.62 477.77 918.953C465.508 912.969 464.037 910.909 407.049 822.044C378.214 777.122 354.38 739.948 354.085 739.457C353.79 738.967 310.534 727.393 258.06 713.563C189.008 695.418 160.956 687.67 156.64 685.413C148.599 681.392 136.632 669.425 133.1 661.873C128.59 652.359 127.215 645.199 127.804 634.213C128.294 622.247 130.158 616.067 135.65 607.926C137.907 604.493 166.645 568.89 199.503 528.674C232.362 488.46 259.63 455.111 260.12 454.424C260.708 453.738 258.844 415.387 255.412 354.477C249.919 258.55 249.82 255.412 251.292 248.055C257.275 219.218 284.935 199.994 313.379 204.898C317.793 205.683 350.946 218.14 411.758 241.778L503.467 277.48L594.293 242.17C644.218 222.651 688.257 206.075 691.985 205.29C703.166 202.936 716.898 204.898 727.982 210.49C730.532 211.764 735.436 215.49 738.967 218.728C749.266 228.438 754.367 237.953 756.132 250.9C756.916 256 755.838 280.03 751.424 355.458L745.833 453.542L806.449 527.595C839.798 568.398 868.733 604.101 870.694 607.044C878.443 618.618 881.582 635.488 878.443 648.729C874.029 667.267 860.199 682.962 843.23 688.454C839.896 689.533 796.543 701.106 746.91 714.054C697.282 727.099 655.89 737.888 655.008 738.182C654.026 738.477 629.603 775.651 600.668 820.77C556.628 889.43 546.918 903.945 541.425 909.437C534.363 916.403 526.32 921.11 517.198 923.465C510.136 925.327 496.503 925.229 489.441 923.365zM549.567 746.815C576.147 705.422 596.058 675.31 598.51 672.956C600.864 670.7 605.376 667.562 608.613 665.992C612.438 664.13 641.766 655.988 693.946 642.354C737.692 630.878 773.786 621.266 774.18 620.874C774.572 620.48 751.326 591.35 722.49 556.04C693.554 520.73 668.64 489.44 667.07 486.498C661.481 476.003 661.481 476.788 666.875 384.981C669.523 339.176 671.583 301.51 671.485 301.315C671.289 301.217 636.665 314.556 594.489 331.035C552.215 347.414 515.923 361.44 513.766 362.029C507.979 363.6 496.796 363.206 491.108 361.342C488.264 360.46 452.267 346.533 410.973 330.447C369.778 314.36 335.841 301.413 335.644 301.609C335.35 301.805 337.312 338.293 339.862 382.725S344.276 466.783 344.08 470.805C343.59 479.535 340.647 486.695 334.075 495.13C331.721 498.17 307.69 527.692 280.717 560.552C251.096 596.647 232.166 620.677 232.852 620.972C233.441 621.364 268.85 630.78 311.418 641.962C354.084 653.045 391.258 663.05 394.2 664.129C400.969 666.58 407.05 670.897 411.267 676.095C413.131 678.351 434.22 710.719 458.054 747.893C481.888 785.165 501.897 816.159 502.486 816.846C502.976 817.533 503.76 817.729 504.153 817.336C504.546 816.944 524.947 785.165 549.566 746.814zM706.697 851.47C687.865 831.068 672.367 814 672.367 813.413C672.368 812.923 682.57 803.114 694.928 791.54C707.384 780.064 719.056 769.177 721.017 767.313L724.648 763.88L759.565 801.447C778.789 822.143 794.385 839.307 794.287 839.7C793.894 840.68 742.106 888.644 741.517 888.546C741.223 888.546 725.627 871.87 706.697 851.47zM236.09 862.063L209.704 837.346L213.53 833.324C215.687 831.166 230.4 815.374 246.192 798.406C261.983 781.437 276.107 766.235 277.579 764.763L280.227 761.92L306.12 786.146C320.343 799.486 332.113 810.863 332.31 811.549C332.506 812.53 264.73 885.8 263.062 886.388C262.67 886.584 250.507 875.598 236.089 862.063zM141.536 439.613C116.524 427.943 96.123 417.938 96.123 417.35C96.22 415.289 126.235 352.613 127.117 352.809C127.804 352.907 218.727 395.182 219.513 395.77C220.199 396.36 189.303 460.506 188.126 460.702C187.439 460.8 166.449 451.286 141.536 439.614zM802.526 428.434C794.286 410.58 787.91 395.572 788.303 395.181C790.167 393.318 880.208 352.122 880.895 352.809C882.661 354.673 911.105 417.35 910.516 417.937C909.732 418.624 818.416 460.997 817.826 460.997C817.632 460.996 810.766 446.283 802.527 428.431zM466.88 182.926V128.49H539.464V237.364H466.88V182.927z" />
    <glyph glyph-name="chuangfuapp_me_encyclopedias_24"
      unicode="&#xE012;"
      horiz-adv-x="1024" d=" M243.74 883.74C217.942 883.248 209.801 882.856 203.72 881.482C158.504 871.185 123.881 839.7 109.854 795.954C103.774 776.729 103.97 788.598 103.97 527.204C103.97 363.99 104.264 286.111 105.05 280.03C110.736 231.969 143.791 191.363 189.792 175.767C206.762 170.078 200.19 170.372 326.13 169.784C441.183 169.195 441.87 169.195 445.303 167.136C447.166 166.056 455.11 160.172 462.86 154.09C485.32 136.533 494.54 132.904 515.923 133.002C527.301 133.002 530.243 133.395 536.717 135.552C547.31 139.083 554.667 143.498 569.772 155.465C577.03 161.152 584.288 166.645 585.956 167.528C588.702 169.098 598.608 169.195 703.264 169.784C829.5 170.372 821.064 169.882 840.386 176.748C883.053 191.755 914.244 229.223 922.286 275.028C923.17 280.423 923.465 337.214 923.465 526.713C923.464 716.21 923.169 773.003 922.287 778.397C917.677 804.585 904.827 829.597 886.584 847.547C871.577 862.356 855.589 871.968 835.776 878.246C818.22 883.837 819.2 883.739 707.188 884.427C598.412 885.014 590.958 884.817 575.068 880.698C554.961 875.599 536.913 866.28 522.495 853.628L518.865 850.39L513.178 855C496.405 868.733 475.611 878.345 453.247 882.955C447.069 884.132 298.668 884.818 243.74 883.739zM445.498 799.68C459.623 794.385 469.726 784.184 474.924 769.864L477.18 763.586L477.474 585.367L477.671 407.05H560.06V584.386C560.061 741.517 560.257 762.41 561.631 767.51C565.946 784.282 581.934 798.602 599.197 801.25C603.218 801.938 641.177 802.036 704.147 801.742C785.557 801.251 803.9 800.956 808.705 799.779C825.085 795.758 838.425 780.555 840.68 763.292C841.76 754.759 841.76 298.765 840.68 290.133C838.62 274.636 827.93 260.708 813.413 254.823L807.724 252.567L692.966 251.979C591.448 251.489 577.422 251.292 571.83 249.82C554.863 245.603 542.406 239.326 527.007 227.359C520.926 222.553 515.825 218.728 515.53 218.728C515.237 218.728 509.548 222.946 502.78 227.948C488.656 238.738 476.395 245.015 462.37 248.84L452.658 251.586L336.429 252.076C211.372 252.568 218.924 252.274 209.214 257.277C204.212 259.922 196.364 267.671 192.932 273.458C186.36 284.444 186.85 265.416 186.85 526.713S186.36 768.98 192.93 779.966C196.366 785.753 204.212 793.502 209.215 796.15C218.728 801.054 215.099 800.858 294.744 801.447C335.742 801.74 385.176 801.937 404.597 801.839C437.946 801.741 440.202 801.643 445.498 799.681zM241.287 680.705V639.51H425.686V721.9H241.287V680.705zM241.287 524.751V483.556H373.701V565.946H241.287V524.751z" />
    <glyph glyph-name="chuangfuapp_me_fansteam_24"
      unicode="&#xE013;"
      horiz-adv-x="1024" d=" M358.498 841.956C356.928 841.759 351.632 841.073 346.728 840.484C298.47 834.501 248.153 805.566 214.903 764.764C199.405 745.636 184.104 718.466 175.473 694.73L171.157 682.667H134.767C114.563 682.667 96.026 682.274 93.083 681.686C80.037 679.234 68.757 670.21 61.499 656.38C56.79 647.454 55.319 640.294 53.849 619.402C51.69 588.31 53.75 554.471 59.438 526.811C72.582 462.86 98.967 423.234 148.303 393.514C173.12 378.605 205.39 367.816 261.69 355.654L272.772 353.3L288.172 338.195C344.57 283.07 422.155 227.85 493.364 192.245C517.297 180.28 515.334 180.671 526.614 185.477C531.814 187.635 542.407 192.736 550.155 196.855C626.073 236.383 699.636 289.251 754.662 343.785L764.273 353.398L779.182 356.634C851.666 372.918 883.347 386.06 916.009 413.426C952.006 443.635 973.683 490.422 981.333 554.667C984.178 578.5 983.295 629.407 979.764 644.217C976.821 656.185 966.621 670.898 957.204 676.488C947.79 682.078 943.18 682.667 903.357 682.667H867.556L863.338 695.222C858.238 710.13 848.625 730.531 840.582 743.38C807.234 797.13 756.034 830.578 692.475 840.288C677.075 842.642 643.923 842.642 630.192 840.288C589.094 833.226 555.452 816.454 524.652 787.715L516.12 779.77L511.902 784.478C501.505 795.856 482.084 810.372 464.92 819.788C448.147 828.91 424.9 836.66 404.107 840.093C395.182 841.563 364.677 842.838 358.498 841.956zM383.902 759.172C402.44 757.407 420.292 751.032 435.789 740.93C440.79 737.692 453.934 725.235 479.926 699.439L516.904 662.658L553.49 698.948C593.018 738.379 598.608 742.989 615.97 750.444C637.645 759.76 657.85 761.919 684.137 757.603C710.915 753.287 732.1 742.302 751.424 722.98C772.218 702.284 785.164 676.487 791.933 642.452C803.114 586.74 793.6 536.913 761.526 483.457C737.398 443.341 696.496 398.713 647.846 359.381C613.224 331.427 568.399 301.315 529.46 279.835L517.1 272.969L511.804 275.91C424.803 324.953 351.534 384.098 304.257 443.537C270.517 485.811 251.292 525.143 243.543 567.908C241.19 580.855 241.19 612.34 243.543 627.249C249.625 665.699 264.24 697.379 286.897 720.821C308.475 743.185 332.997 755.838 360.95 759.075C371.15 760.251 372.818 760.251 383.902 759.172zM149.872 612.438L158.898 611.752V596.45C158.897 550.939 169.294 509.842 192.245 464.33L201.76 445.499L197.444 447.362C195.09 448.343 189.989 450.992 186.066 453.247C151.442 473.257 135.454 499.74 126.43 551.724C124.86 560.65 124.273 569.477 123.88 588.31L123.29 613.027H132.12C137.024 613.027 144.969 612.733 149.873 612.438zM912.773 605.474C914.342 588.408 911.694 558.002 906.692 535.834C898.255 498.072 883.248 474.337 857.256 457.564C850.783 453.345 836.659 445.89 836.659 446.675C836.659 446.872 840.19 453.836 844.408 462.173C860.984 494.051 871.185 524.751 876.383 558.1C877.266 563.985 878.247 577.815 878.541 590.173L879.13 611.948L884.622 612.34C887.662 612.536 895.02 612.733 901.1 612.83L911.988 613.028L912.772 605.474z" />
    <glyph glyph-name="chuangfuapp_me_history_24"
      unicode="&#xE014;"
      horiz-adv-x="1024" d=" M229.027 907.182C202.446 903.258 179.102 885.21 169.392 860.886C168.018 857.453 166.057 850.88 165.076 846.369C163.408 838.523 163.31 822.927 163.31 512.981C163.31 251.39 163.605 186.36 164.585 180.475C170.078 148.892 191.657 125.842 223.24 117.995C229.42 116.426 244.426 116.328 408.815 116.034L587.525 115.64V198.131H246.192V825.87H764.077V429.61H846.467L846.271 636.37L845.977 843.036L843.721 850.88C835.874 878.835 816.846 897.864 789.088 905.612L781.241 907.77L508.077 907.868C356.144 907.966 232.362 907.672 229.027 907.182zM326.62 675.8V634.605H682.667V716.996H326.62V675.801zM326.62 512V470.805H573.793V553.195H326.621V512zM778.299 384.49C707.482 378.311 649.416 326.817 635.194 257.962C623.62 201.563 643.629 142.32 686.688 105.146C741.42 57.87 820.181 52.867 880.405 92.69C902.964 107.697 921.895 129.275 934.449 154.483C957.009 199.405 956.714 253.058 933.664 298.078C912.871 338.881 875.304 368.895 831.264 380.077C815.18 384.197 794.287 385.864 778.3 384.49zM808.999 314.262C845.192 306.808 872.558 279.442 880.307 242.955C882.268 234.127 882.17 216.57 880.208 207.252C874.421 178.906 853.53 153.502 826.851 142.124C804.88 132.806 778.2 132.806 756.23 142.124C713.563 160.368 691.298 209.018 705.422 253.057C715.623 284.837 743.773 309.26 776.632 314.851C784.673 316.224 801.053 315.929 808.998 314.262zM760.153 238.835V182.437H863.142V236.383H814.1V295.233H760.153V238.836z" />
    <glyph glyph-name="chuangfuapp_me_label"
      unicode="&#xE015;"
      horiz-adv-x="1024" d=" M239.6 923.9C218.9 922.2 205.5 917.9 192 908.7C176.8 898.3 164.9 880.8 160.1 861.9C155.9 845.5 155.9 840.8 156.2 496L156.5 165.5L159.3 156.5C166.3 134.1 180.4 116.2 199.5 105.5C223.8 91.9 255.1 91 279.5 103.2C282.8 104.9 334.8 135.3 395 170.9C455.2 206.4 505.1 235.4 506 235.4C506.9 235.4 559.9 205.6 623.9 169.1C687.8 132.6 743.4 101.3 747.3 99.5C759.7 93.9 766.7 92.5 783 92.6C795.7 92.7 798.6 93 806.3 95.4C811.2 96.8 817.5 99.2 820.3 100.6C838.5 109.7 854.9 127.7 862 146.1C868.4 162.8 868 138.5 868 500.9C868 719.8 867.6 834.4 867 842C865.7 856.3 863 867.4 858.5 876.7C846.2 902.8 825.9 917.4 794 923.1C786.3 924.5 255.9 925.3 239.6 923.9zM780.7 837.7C781.6 836.7 782.4 179 781.4 179C781.1 179 719.1 214.2 643.7 257.2C568.2 300.2 505.8 335.4 505 335.4C504.2 335.3 444.8 300.6 373 258.2L242.5 181.2L242.2 506.3C242.1 685.2 242.2 832.9 242.5 834.7C242.9 837.2 243.6 838 245.8 838.3C251.1 839.1 779.8 838.5 780.7 837.7zM341 611V568H683V654H341V611z" />
    <glyph glyph-name="chuangfuapp_me_list_24"
      unicode="&#xE016;"
      horiz-adv-x="1024" d=" M431.254 876.32C455.405 876.32 474.96 856.737 474.96 832.611V577.112A43.707 43.707 0 0 0 431.254 533.403H186.218A43.707 43.707 0 0 0 142.511 577.111V832.611C142.51 856.739 162.09 876.32 186.218 876.32H431.254zM414.994 816.377H202.453V593.346H414.995V816.378zM431.255 470.89C455.405 470.89 474.96 451.31 474.96 427.183V171.683A43.707 43.707 0 0 0 431.254 127.974H186.218A43.707 43.707 0 0 0 142.511 171.682V427.182C142.51 451.31 162.09 470.89 186.218 470.89H431.254zM414.994 410.974H202.453V187.94H414.995V410.975zM899.148 818.75V758.81H566.147V818.75zM899.147 651.69V591.747H566.147V651.69zM899.147 413.296V353.355H566.147V413.296zM899.147 246.234V186.319H566.147V246.26z" />
    <glyph glyph-name="chuangfuapp_me_normal_24"
      unicode="&#xE017;"
      horiz-adv-x="1024" d=" M426.862 867.645C450.438 867.645 469.528 848.53 469.528 824.978V643.096A42.667 42.667 0 0 0 426.862 600.43H187.66A42.667 42.667 0 0 0 144.994 643.096V824.978C144.994 848.53 164.108 867.645 187.66 867.645H426.862zM410.99 809.13H203.508V658.944H410.99V809.131zM592.53 137.094A42.667 42.667 0 0 0 549.864 179.761V361.643C549.864 385.219 568.954 404.309 592.53 404.309H831.732C855.308 404.31 874.399 385.22 874.399 361.643V179.76A42.667 42.667 0 0 0 831.731 137.094H592.53zM608.402 195.584H815.933V345.771H608.403V195.584zM426.862 539.892C450.438 539.892 469.528 520.777 469.528 497.225V179.785A42.667 42.667 0 0 0 426.862 137.12H187.66A42.667 42.667 0 0 0 144.994 179.785V497.225C144.994 520.777 164.108 539.892 187.66 539.892H426.862zM410.99 481.402H203.508V195.657H410.99V481.402zM592.53 464.847A42.667 42.667 0 0 0 549.864 507.514V824.954C549.864 848.506 568.954 867.62 592.53 867.62H831.732C855.308 867.62 874.399 848.506 874.399 824.954V507.514A42.667 42.667 0 0 0 831.731 464.847H592.53zM608.402 523.362H815.933V809.106H608.403V523.362z" />
    <glyph glyph-name="chuangfuapp_me_order_24"
      unicode="&#xE018;"
      horiz-adv-x="1024" d=" M244.5 923.9C221.3 921.7 205.9 915 181.9 896.9L171.2 888.8L166.7 879.2C161.1 867.3 158.4 856.9 157 842.5C155.5 826.6 155.6 202.1 157.1 187.5C159.6 162.9 166.5 147.2 186.4 121.8C192 114.6 193 113.8 202 109.6C214.3 103.8 224.9 101.3 242.5 99.9C262 98.4 621.4 99.3 639.5 100.9C687.8 105.1 713.9 111.4 744.5 126.4C768.1 138 785.2 150.3 802.6 168.2C819.2 185.3 829.3 199.7 840.3 221.8C857.5 256.6 864.2 287.3 867 345.5C868.4 374.5 868.3 822.4 866.9 836.5C864.4 861.1 857.5 876.8 837.6 902.2C832 909.4 831 910.2 821.9 914.4C810.2 919.9 799.2 922.7 783.4 924C769.2 925.2 256.6 925.1 244.5 923.9zM774.3 838.4C777.2 837.9 778.5 837 779.8 834.6C781.4 831.7 781.5 816.1 781.8 604.5C782.1 346.6 781.7 325.9 775.5 296C767.1 255.2 742.7 222 708.5 204.7C683.9 192.4 662.1 188.1 613.5 186C587.6 184.9 256.1 184.6 249.7 185.6C246.8 186.1 245.5 187 244.2 189.4C242.6 192.3 242.5 213.2 242.2 511.5C242.1 687 242.2 831.5 242.5 832.7C243.1 835.4 246.1 837.2 251.5 838.1C256.5 838.9 769.1 839.2 774.3 838.4zM341 697V654H683V740H341V697zM341 526V483H569V569H341V526z" />
    <glyph glyph-name="chuangfuapp_me_paid_24"
      unicode="&#xE019;"
      horiz-adv-x="1024" d=" M299.157 859.61C283.66 856.375 266.593 844.507 257.667 830.97C252.077 822.437 128.392 587.721 125.842 580.66C117.995 559.473 121.722 532.892 135.16 515.139C138.691 510.43 428.825 216.472 457.661 188.322C469.333 176.944 472.472 174.492 479.632 170.862C491.795 164.88 498.464 163.31 512.49 163.409C522.3 163.506 525.536 163.898 531.911 166.057C546.526 170.863 551.626 174.59 576.245 199.6C588.702 212.156 662.755 287.093 740.93 366.247C819.102 445.303 884.72 512.197 886.78 515.04C896.196 527.399 899.923 539.66 899.825 557.609C899.825 568.89 899.531 571.243 897.177 578.011C894.333 586.25 771.629 819.985 764.371 830.97C755.347 844.7 738.28 856.373 722.39 859.708C712.386 861.769 308.966 861.769 299.157 859.61zM756.72 669.328C807.822 572.224 814.296 559.571 813.217 557.805C811.353 554.961 511.607 252.077 510.823 252.273C510.529 252.469 441.968 321.618 358.498 405.97C214.412 551.724 206.958 559.375 208.233 561.435C208.92 562.512 235.108 611.947 266.299 671.19L323.089 778.789H699.048L756.72 669.327zM403.323 663.834C401.263 660.99 390.768 646.474 380.077 631.663C369.385 616.853 360.264 604.199 359.87 603.61C358.891 602.434 373.995 592.037 386.943 584.877C414.308 569.772 447.264 559.277 480.613 554.96C492.775 553.39 529.557 553.39 541.425 554.96C576.54 559.473 608.613 570.066 638.038 586.642C649.71 593.214 662.658 602.042 662.363 603.218C662.07 604.298 618.127 665.11 615.97 667.365C614.302 669.132 613.91 669.034 604.592 663.05C579.58 647.356 554.078 638.92 524.555 636.567C486.695 633.625 450.109 642.648 417.643 662.952C412.444 666.287 407.933 668.935 407.638 668.935C407.344 668.935 405.382 666.58 403.323 663.835z" />
    <glyph glyph-name="chuangfuapp_me_spring_24"
      unicode="&#xE01A;"
      horiz-adv-x="1024" d=" M484.5 909.9C462 907.3 451.5 905.2 435.6 900.3C366.9 879 311.6 824.1 289.7 755.5C288.1 750.3 285.7 741.5 284.5 736L282.4 726L274.4 724.2C230.3 714.1 193.7 694.1 162.9 663.4C98.3 598.8 79.6 502.2 115.2 417.5C142.9 351.8 204.1 301.1 273 286.9C277.7 285.9 281.6 285 281.8 284.9C282 284.8 283.2 280 284.5 274.3C303.5 190.8 367.7 125.9 451 106C468.6 101.9 481.9 100.4 502.5 100.4C547.6 100.4 587.5 112 624.5 136C672.8 167.3 708.8 218.9 720.5 273.5C723 285.2 722.9 285.1 730.7 286.5C746.1 289.3 768.4 297.2 785.4 305.7C828.2 327.2 864.7 364.4 885.5 407.7C895.9 429.4 901.9 448.9 905.7 473.3C907.8 486.5 908 520.9 906.2 534C899.1 584.6 877.8 627.9 842.5 663C810.8 694.7 773.9 714.8 730.8 724L723.1 725.7L721.5 733.3C709.4 790.7 674.1 842.1 624.4 874.6C588.4 898.1 544.8 910.8 501.5 910.4C493.8 910.3 486.2 910 484.5 909.9zM521 825C552.7 820.7 579 807.5 601.8 784.3C620.8 765.2 633.1 742 639.6 713.5C640.9 707.7 641.4 699.2 641.7 675.3L642.2 644.5H669C691 644.5 697.8 644.2 707.2 642.6C779 630.3 829.7 564.8 823.1 493.1C821 471.4 815.3 453.2 804.8 435.5C784.9 401.9 752.8 378.2 715.5 369.5C704.1 366.8 686.7 365.5 662.8 365.5H642.2L641.7 335.3C641.3 308.9 641 303.7 639.1 295C628.8 248.3 595.5 209.5 551.3 192.9L545 190.5V345.1L555.3 348.9C576.2 356.6 593.8 368.3 610.6 385.7C634.7 410.8 648.9 441.9 652.9 478.7C655.3 500.2 653.4 519 647.1 538.4C634.1 578 603.7 615.9 556 652C540.7 663.6 505 686.9 502.5 686.8C501.1 686.8 472.3 668.6 460.5 660.2C441.9 647 426.6 634.2 410.9 618.5C373.4 581 354.9 545.5 351.5 504.5C350.7 494.9 352.4 474.2 355 461.7C366.1 408.2 402.9 365.3 452.7 347.9L461 345V190.4L458.8 191C452.8 192.8 439 199.3 431.6 203.8C399.4 223.3 376.2 254.7 367.4 290.4C364.1 304 363 317.4 363 343.7V366.6L344.3 365.9C311.2 364.8 287.8 368.1 266.8 377C225.4 394.5 194.1 432.3 184.4 476.5C182.8 483.4 182.5 489 182.6 506.5C182.6 527.3 182.7 528.4 185.7 539.5C192.4 564.3 203.4 583.7 220.9 601.8C240.5 622.2 263.5 635 292.5 641.7C300.3 643.5 305.7 643.8 332.3 644.2L363 644.7V666.3C363 678.3 363.5 693 364 699C367.2 733.4 381.9 764 406.7 787.6C438 817.3 479 830.8 521 825zM514 577.6C534.1 561.6 552.5 541.1 560.9 525.3C567.6 512.9 569.3 506.5 569.3 494.5C569.2 461.3 548.9 433.5 519 425.9C505.6 422.5 486.9 424.1 474.5 429.9C458.4 437.4 443.5 455.5 438.4 474C435.9 483.3 435.4 501.8 437.5 509.1C441.9 524.5 453.3 541.7 470.2 558.6C482 570.4 501.9 586.7 503.4 585.8C504 585.4 508.8 581.7 514 577.6z" />
    <glyph glyph-name="chuangfuapp_me_upload_24"
      unicode="&#xE01B;"
      horiz-adv-x="1024" d=" M247.172 875.206C222.75 871.283 203.33 862.651 186.556 848.135C165.566 829.89 151.54 803.8 148.206 776.337C147.42 770.06 147.125 692.181 147.125 511.51C147.126 230.694 146.832 245.113 153.012 226.575C166.155 187.145 197.64 159.387 239.326 150.363C247.27 148.696 259.826 148.598 511.019 148.598C762.017 148.598 774.768 148.696 782.713 150.363C805.37 155.267 823.123 164.39 839.013 179.494C858.238 197.738 870.694 222.063 873.833 247.663C874.618 253.94 874.912 332.015 874.912 512.98C874.912 791.933 875.206 778.397 869.419 796.444C860.2 825.674 839.307 850.293 812.138 863.73C803.408 868.046 797.033 870.4 786.636 873.146L778.299 875.402L513.962 875.5C368.6 875.6 248.546 875.5 247.172 875.206zM768.098 792.226C777.71 789.874 785.165 783.498 789.775 773.297L792.03 768.49V255.51L789.48 250.017C784.575 239.62 776.238 233.342 764.958 231.479C756.23 230.106 265.81 230.106 257.08 231.479C253.646 232.067 249.232 233.342 247.27 234.42C241.68 237.168 235.5 243.838 232.656 249.92L230.008 255.509V768.49L232.264 773.297C236.775 783.3 244.328 789.873 253.548 792.129C261.002 793.992 760.349 793.992 768.098 792.227zM299.158 512.49V397.241H358.007V483.556H430.59V397.24H488.46V627.74H430.59V541.425H358.008V627.74H299.158V512.49zM525.731 512.49V397.241H571.733C608.025 397.241 619.403 397.536 626.072 398.713C681.882 408.423 721.9 455.7 721.9 512.098C721.9 565.064 686.394 610.673 634.9 623.718C622.737 626.857 607.436 627.74 564.77 627.74H525.731V512.49zM620.775 567.418C630.485 565.064 638.136 560.552 646.964 551.724C655.988 542.8 660.205 535.344 662.559 524.26C666.777 504.35 661.48 486.89 646.866 472.276C633.526 458.936 622.933 455.11 598.608 455.11H584.582V568.89H599.59C609.398 568.889 616.656 568.399 620.775 567.418z" />
    <glyph glyph-name="chuangfuapp_me_weekly_24"
      unicode="&#xE01C;"
      horiz-adv-x="1024" d=" M297.686 920.62C284.248 916.4 274.636 906.79 269.634 892.468C267.574 886.682 267.378 884.132 266.985 860.003L266.593 833.717H241.483C195.384 833.716 177.534 831.362 160.173 823.024C134.964 810.961 119.27 789.677 113.092 759.467C111.423 751.326 111.325 736.319 111.325 478.16S111.424 204.996 113.09 196.855C120.84 158.602 144.97 133.787 181.848 125.94C197.248 122.703 216.276 122.507 521.318 122.9C796.346 123.194 825.183 123.39 833.226 124.86C848.135 127.51 859.218 131.727 870.204 138.79C891.488 152.62 903.65 173.217 908.457 203.525C910.32 215 910.32 741.32 908.457 752.797C902.179 792.227 882.759 816.356 848.037 827.929C836.169 831.853 825.085 832.834 788.402 833.422L753.287 834.011V858.63C753.287 885.995 752.601 890.41 747.207 900.61C743.184 908.064 734.356 916.303 727.098 919.246C721.704 921.404 720.233 921.502 697.869 921.502H674.33L667.66 918.265C658.93 913.95 652.36 907.182 647.652 897.765L643.923 890.214L643.63 861.965L643.335 833.716H377.625V858.041C377.625 884.131 376.84 890.41 372.328 899.237C367.228 909.24 357.615 917.382 347.316 920.423C340.451 922.385 303.866 922.581 297.686 920.619zM820.279 749.755C822.535 749.364 824.399 748.286 825.183 747.01C826.95 743.97 826.95 212.352 825.183 209.214C824.203 207.644 822.633 206.958 818.808 206.467C810.96 205.585 198.915 206.37 196.953 207.252C196.071 207.742 194.992 209.018 194.6 210.195C193.422 213.333 192.932 732.493 194.11 740.83C194.599 744.558 195.286 747.795 195.58 748.089C195.874 748.383 197.542 748.972 199.307 749.364C203.133 750.247 814.787 750.639 820.28 749.756zM386.452 621.364V579.678H464.92C508.077 579.678 543.387 579.482 543.387 579.384C543.387 579.188 516.414 514.55 483.457 435.887C450.501 357.223 423.332 291.997 423.037 291.114C422.548 289.447 425.098 289.35 466.686 289.35C501.113 289.349 510.921 289.643 511.313 290.624C511.608 291.212 539.17 356.634 572.714 435.887L633.624 579.972V663.05H386.453V621.364z" />
    <glyph glyph-name="commercial_ads_commodity_close_black"
      unicode="&#xE01D;"
      horiz-adv-x="1024" d=" M477.5 1023.4C404.6 1017.6 343 1000.6 280.5 969C228.9 942.9 186 911.4 145 869.4C64.3 786.7 15.7 683.3 2.3 565.8C-0.2 543.9 -0.2 480.1 2.3 458.2C15.7 340.7 64.3 237.3 145 154.6C186 112.6 228.9 81.1 280.5 55C342.2 23.8 404.6 6.4 473.9 1C491.2 -0.3 532.8 -0.3 550.1 1C642.8 8.2 730.5 39.4 805.1 91.7C877.2 142.1 935.1 210 973.1 288.5C1001.8 348 1018.2 409.3 1023.1 475.8C1024.6 496.7 1023.8 547.3 1021.5 566.9C1011.1 659.7 977.2 745.7 921.6 820C889.7 862.7 845.6 904.9 801.2 935.1C731.2 982.8 654.5 1011.3 568 1021.6C555.1 1023.2 490.7 1024.4 477.5 1023.4zM599.8 633.3L687.5 721L704.3 704.3L721 687.5L633.3 599.8L545.5 512L633 424.5L720.5 337L703.7 320.3L687 303.5L599.5 391L512 478.5L424.5 391L337 303.5L320.3 320.3L303.5 337L391 424.5L478.5 512L390.7 599.8L303 687.5L319.7 704.3L336.5 721L424.2 633.3L512 545.5L599.8 633.3z" />
    <glyph glyph-name="commercial_ads_feedback_camera_black"
      unicode="&#xE01E;"
      horiz-adv-x="1024" d=" M340.7 881.3C340.5 880.8 331.3 855.2 320.4 824.3L300.5 768.1L234.5 767.8C160.3 767.4 164.6 767.8 147.4 759.5C121.5 747 103.7 722.4 100 693.8C99.2 688 99 618.8 99.2 464L99.5 242.5L101.8 234.5C111.8 199.4 139.2 175.4 174.6 171.1C187.2 169.6 836.8 169.6 849.4 171.1C885.6 175.5 914.3 201.3 922.7 237C924.4 244.1 924.5 257.8 924.5 469.5C924.5 687.9 924.4 694.7 922.6 702C915.7 729 899.1 749.2 874.7 760.5C859.2 767.7 862.6 767.4 789.5 767.8L723.5 768.1L703.4 824.8L683.3 881.5L512.2 881.8C418.1 881.9 340.9 881.7 340.7 881.3zM642.4 738.8L662.5 682H839V256H185V682H361.5L381.4 738.3C392.3 769.2 401.5 794.8 401.7 795.3C401.9 795.7 451.7 795.9 512.2 795.8L622.3 795.5L642.4 738.8zM501 668.4C456.8 664.9 418.9 647.4 389.4 616.8C364.3 590.8 348.6 559.3 342.9 523.5C341.2 513 341.2 481.6 342.9 472C349.5 433.8 364.9 403.3 390.8 377.3C438 329.8 507.7 314.4 571.3 337.4C643.3 363.5 689.6 437.1 682.1 513.5C680.5 529.4 678.7 538.1 673.9 552.5C664.9 578.9 650.3 601.9 630.2 621.2C604.6 645.6 573.6 661 539 666.5C530 667.9 508.6 669 501 668.4zM531.3 580.4C559.6 574.5 584.8 550.7 593.6 521.5C596 513.6 596.3 510.8 596.4 498.5C596.4 482.5 595 475.2 589.6 463.5C578.7 440 558.9 422.8 534.3 415.8C523 412.6 501 412.6 489.7 415.8C465.1 422.9 445.3 439.9 434.4 463.5C429 475.2 427.6 482.5 427.6 498.5C427.7 510.8 428 513.6 430.4 521.5C441.8 559.4 477.1 584.5 516 582.3C520.7 582.1 527.6 581.2 531.3 580.4z" />
    <glyph glyph-name="commercial_ads_feedback_extension_black"
      unicode="&#xE01F;"
      horiz-adv-x="1024" d=" M552.981 917.333V835.35H512C333.419 835.35 188.65 690.581 188.65 512S333.42 188.65 512 188.65C686.933 188.65 829.44 327.574 835.179 501.12L835.349 512V552.981H917.333V512C917.333 288.15 735.851 106.667 512 106.667S106.667 288.149 106.667 512C106.667 731.861 281.707 910.848 500.053 917.163L512 917.333H552.981zM512 765.525V683.52A171.541 171.541 0 1 1 683.307 503.168L683.563 512H765.525C765.525 371.99 652.032 258.475 512 258.475C371.99 258.475 258.475 371.968 258.475 512C258.475 648.683 366.635 760.107 502.037 765.333L512 765.525zM726.23 908.715C740.692 923.157 767.594 916.544 779.092 895.744L820.587 820.587L895.744 779.093C916.544 767.595 923.157 740.693 908.714 726.23L796.438 613.973C788.46 605.973 775.851 604.011 763.84 608.853L691.584 638.187L515.84 462.4L457.856 520.405L635.541 698.07L608.875 763.84C604.373 774.848 605.653 786.368 612.053 794.347L613.973 796.437zM746.58 829.525L676.715 759.68L696.32 711.296L711.275 696.363L759.7 676.736L829.547 746.603L786.432 770.389A41.28 41.28 0 0 0 770.389 786.432L746.581 829.525z" />
    <glyph glyph-name="commercial_ads_feedback_left_black"
      unicode="&#xE020;"
      horiz-adv-x="1024" d=" M359 626.5L242.5 510L359 393.5L475.5 277L494 295.5L512.5 314L414.5 412L316.5 510L414.5 608L512.5 706L494 724.5L475.5 743L359 626.5z" />
    <glyph glyph-name="commercial_ads_feedback_lower_black"
      unicode="&#xE021;"
      horiz-adv-x="1024" d=" M150.5 695L120.5 665L314.5 471L508.5 277L702.5 471L896.5 665L866.5 695C850 711.5 836.1 725 835.5 725C835 725 761.2 651.6 671.5 562L508.5 399L345.5 562C255.9 651.6 182 725 181.5 725C180.9 725 167 711.5 150.5 695z" />
    <glyph glyph-name="commercial_ads_feedback_right_black"
      unicode="&#xE022;"
      horiz-adv-x="1024" d=" M328.7 866.2C312.4 849.9 299 836 299 835.5C299 834.9 372.4 761.2 462 671.5L625 508.5L462 345.5C372.4 255.9 299 182 299 181.5C299 180.9 312.5 167 329 150.5L359 120.5L553 314.5L747 508.5L553.3 702.2C446.7 808.8 359.3 896 359 896C358.7 896 345.1 882.6 328.7 866.2z" />
    <glyph glyph-name="commercial_ads_feedback_success_green"
      unicode="&#xE023;"
      horiz-adv-x="1024" d=" M477.5 1023.3C384.9 1017 294.2 985.1 218.9 932.3C148.5 883.1 91.4 816.9 53.6 741C25.9 685.4 9.6 629.5 2.3 565.8C-0.2 543.9 -0.2 480.1 2.3 458.2C9.7 393.2 26.3 337.2 55 280.5C116.5 158.7 224.1 66.7 354 24.5C405.8 7.7 455.6 0 512 0C556.8 0 593.3 4.3 634.8 14.6C711 33.3 780.5 68.7 842 119.8C856.8 132.2 891.8 167.2 904.2 182C974.1 266 1014.6 365.5 1023 473.9C1024.3 491.2 1024.3 532.8 1023 550.1C1014.6 658.5 973.7 758.9 904.1 842C884 865.9 853.1 895.9 828 915.5C786.2 948.2 736.1 976 687 993.7C643.6 1009.4 597.4 1019.3 550.1 1023C537.8 1023.9 489.7 1024.1 477.5 1023.3zM742 634.5L758.5 618L608 467.5C525.2 384.7 457.1 317 456.5 317C455.2 317 271 501.2 271 502.5C271 503 279 511.5 288.7 521.2L306.5 539L383 462.5L459.5 386L592 518.5C664.9 591.4 724.7 651 725 651C725.3 651 732.9 643.6 742 634.5z" />
    <glyph glyph-name="commercial_fentiao_fans_price_grey"
      unicode="&#xE024;"
      horiz-adv-x="1024" d=" M486.5 938.4C484.3 938.2 476.9 937.5 470 936.9C413.8 931.9 352.5 912.6 301.6 883.8C265.4 863.4 224.9 831.3 198.2 801.7C175.9 777.2 154.7 748.2 140.2 722.4C111.4 671.5 93.4 614.4 86.8 553.5C85.1 537.7 85.1 486.3 86.8 470.5C93.4 409.6 111.4 352.5 140.2 301.6C160.6 265.4 192.3 225.5 222.2 198.3C246.2 176.4 276.1 154.5 301.6 140.2C397 86.3 510.1 71.2 617 98.1C652.9 107.1 690.9 122.3 723.1 140.5C748.3 154.8 778.1 176.7 801.8 198.3C831.6 225.4 863.6 265.6 883.8 301.6C957.4 431.9 957.2 593 883.5 723.1C869.1 748.4 847.2 778.2 825.5 802C798.4 831.8 758.3 863.6 722.4 883.8C672.9 911.8 617 929.8 559 936.6C546.3 938 495.9 939.3 486.5 938.4zM555 862.5C579 859.3 599.3 854.8 619.5 848.3C734.1 811.6 823.2 717.5 853.5 601.5C862 569.1 864.4 549 864.4 512C864.4 481.3 863.5 470.9 858.9 446C838.9 339.8 768.7 246.4 672.1 197.6C633.2 177.9 599.5 167.6 554.5 161.4C536 158.8 488 158.8 469.5 161.4C425.5 167.4 391.6 177.7 353.9 196.5C256.1 245.3 185.5 338.7 165.1 446C160.5 470.7 159.6 481.3 159.6 512C159.6 542.7 160.5 553.3 165.1 578C191.9 719.6 304.3 832 446 858.9C455.6 860.7 475.8 863.4 487 864.4C497.4 865.3 544 864 555 862.5zM558.6 672.3C533.4 645.7 512.3 624.1 511.9 624.2C511.5 624.4 491.1 646 466.5 672.3C442 698.5 421.4 720 420.9 720C420.1 720 386.2 689 370.2 673.5L366.8 670.3L406.4 627.9L446 585.5L403.5 585.2L361 585V511H475V455H361V381H475V318H549V381H663V455H549V511H663V585H621C597.9 585 579 585.2 579 585.5S596.8 604.8 618.5 627.7C640.2 650.5 658 669.5 658 669.9C658 670.5 612.6 714 607.2 718.4L604.5 720.7L558.6 672.3z" />
    <glyph glyph-name="commercial_fentiao_feed_fanstop_white_xl"
      unicode="&#xE025;"
      horiz-adv-x="1024" d=" M393.5 953.8C367.1 843 358.6 814.9 342.3 784C325.1 751.6 309.4 732.1 270.4 694.3C236 660.9 211.6 630.5 188.8 592C160.5 544.7 140.8 484.5 135.9 430.6C134.5 414.9 135.3 378.1 137.4 362.9C145.5 305.1 167.4 253.6 202.8 209C213.8 195.2 240.6 168.9 254.5 158.4C300.7 123.3 349.6 103.5 407.5 96.4C426.2 94.1 466.6 94.1 487.8 96.4C538.2 101.8 579.3 113.5 619.1 133.6C701 175 755.6 246.6 773.4 336C778.3 360.4 779.4 373.4 779.4 404C779.4 433.6 778.4 445.3 774 469.1C762.5 530.5 731.8 587.3 685 634C672 647 609.2 704 607 704.8C605.7 705.3 605.5 703 601 651.9C596.7 601.9 594.5 585.7 589.9 571.4C587.3 563.1 586.6 562.1 583.6 560.6C579.5 558.7 573.5 558.5 570 560.3C564.1 563.3 565.4 579.5 573.9 609.1C583.3 641.7 586.1 660.3 586.1 689C586.1 740.2 571.8 785.9 541.5 831.3C524.8 856.3 499.4 884.3 475.5 904C459.8 916.9 399.3 964 397.5 964.6C396.6 965 395.4 961.8 393.5 953.8zM450.6 808.8C467.7 790.1 484.2 763.2 492 741.5C498.3 723.8 500.2 713.3 500.7 693C501.3 671.7 499.7 659.4 493.6 638.5C484.4 606.9 481.8 592.1 481.7 571.5C481.6 530.8 498.3 500.2 530 483.7C547.1 474.7 563.1 471.2 582 472.3C614.9 474.2 645 491.9 659.7 517.9L663.3 524.2L667.6 516.4C681.8 490.7 690.8 460.2 694.1 427C695.5 411.8 694.7 381.9 692.5 367C681.7 295.9 641.4 240.7 577.5 209.5C549.7 196 521.4 187.9 485.5 183.4C465.7 180.9 426.8 180.9 411 183.3C359.8 191.4 316.4 213.7 281.5 250.1C250.1 282.8 230.6 322.2 222.3 369.5C219.6 385.1 219.8 424.3 222.8 441C230 482.7 247.9 527.6 271.2 562.3C289.3 589.3 304.2 606.9 331.5 633.3C357 658.1 377.6 681 389.8 698.1C412.8 730.7 431.4 767.6 442.2 802.2C444 808.1 445.8 813 446.1 813C446.5 813 448.5 811.1 450.6 808.8zM780 914V868H689V781H780V689H865V781H955V868H865V960H780V914z" />
    <glyph glyph-name="commercial_fentiao_fentiao_logo_black"
      unicode="&#xE026;"
      horiz-adv-x="1024" d=" M773 876.1V813H738.2C698.3 813 694.5 812.5 679.8 804.8C660.5 794.8 649.2 776.5 646.5 750.8L645.8 744H773V707.1C773 673.1 773.2 669.7 775 663.8C780 647.7 793.1 634.8 813.5 626.2C821.4 622.9 836.9 618 839.6 618C840.8 618 841 627.9 841 681V744H876C913.3 744 917.4 744.4 927.5 749C939.8 754.5 949.1 764.6 957 780.8C961 789 967 806.9 967 810.7V813H841V848.6C841 887.9 840.6 891.6 834.8 902C830.9 909 827.1 913.3 819.7 919.3C810.6 926.6 790.8 935.3 776.3 938.5L773 939.2V876.1zM398.4 927.9C401.6 922.1 406.4 906.7 408.9 894.4C418.6 846.4 409.1 797.4 382.3 756.9C371.4 740.5 359.1 727.1 334.8 704.9C239.7 618 201.9 573.8 173.5 516.5C159.5 488 150.1 461.1 146.1 437C141.4 409.1 140.8 362.3 144.9 336.8C156.4 265 196 198.7 256 150.8C273 137.2 290.8 126.1 312.5 115.5C343.5 100.3 368.2 92.7 404.5 87.4C422.6 84.7 464.6 84.9 483.1 87.8C549.6 98.1 606.6 126 653.9 171.5C700.9 216.7 731.3 274 741.1 335.8C745 360.4 744.7 398.5 740.4 428C732.1 484.8 711.1 534 677 576.7C669.8 585.6 646 610.3 645.2 609.5C645 609.3 645.6 603.8 646.6 597.3C649.2 580.8 649.2 541.4 646.7 525C641.7 492.5 634.6 475.8 619.1 459.6C602.1 441.8 581 434.4 558.3 438.4C539.6 441.6 528.8 447.2 515.5 460.5C507.8 468.1 505.7 470.9 501.8 479C494.9 493 493.6 499.9 494.3 517.8C495.2 540.9 496.9 546.4 517 588C524.6 603.7 533.3 622.8 536.3 630.5C562.3 695.7 562.6 766.2 537.1 819.5C517.8 860 485.9 890.7 437.8 915.1C425 921.6 405.1 930 398.8 931.5L396 932.2L398.4 927.9z" />
    <glyph glyph-name="commercial_fentiao_home_brand_black"
      unicode="&#xE027;"
      horiz-adv-x="1024" d=" M318.5 819C301.4 816.4 286.4 807.7 276.5 794.4C271.5 787.8 155.8 571.6 152.9 563.4C149.9 555.2 149.2 537 151.4 528.4C153.7 519.6 157.1 512.3 162.3 505.5C164.8 502.2 235 431.8 318.4 349C428.8 239.5 471.6 197.6 475.7 195.2C494.1 184.3 517.4 183.4 536.9 192.7C543.8 196 547.2 199 584.9 236C664.8 314.4 854.7 505.4 857.4 510.1C867.5 527.7 869.3 548.4 862.3 565.9C858.1 576.4 743.4 789.9 738.7 795.9C729.3 808 713.2 816.9 697 818.9C687.2 820.2 326.6 820.2 318.5 819zM690.8 757.8C691.3 757.1 715.7 711.7 745 657C774.3 602.3 800 554.3 802.1 550.3L806.1 543.1L658 395.3C576.5 314 509.4 247.3 508.9 247.2C507.8 246.8 211 541.8 211 543.3C211 545 324.2 756.4 325.9 757.8C327.1 758.7 365.1 759 508.6 759C652.3 759 690 758.7 690.8 757.8zM394 604C384.4 590.3 376.4 578.5 376.2 577.8C375.6 574.5 413.2 553.9 432.8 546.7C479.9 529.6 529.7 528.9 577.4 544.7C593.2 549.9 618.8 562.4 632.3 571.3L641 577.1L635.3 585.3C611.2 619.5 604.7 628.5 604.1 628.8C603.6 628.9 599.5 626.7 594.9 623.9C544.7 592.7 491.2 589.1 440.4 613.4C434.3 616.3 425.7 621 421.3 623.9C416.9 626.7 412.9 629 412.4 629C411.9 628.9 403.6 617.7 394 604z" />
    <glyph glyph-name="commercial_fentiao_home_other_black"
      unicode="&#xE028;"
      horiz-adv-x="1024" d=" M372.5 937.5C274.9 925.6 198.1 848.9 186 751C184.5 738.6 184.8 709.9 186.5 696.5C194.5 635.9 228.6 581.7 280.8 546.7C300.3 533.6 331.4 520.7 354.5 516.1C371.9 512.6 384.2 511.7 405 512.3C446.8 513.4 481.2 524.2 515.7 547C548.5 568.6 572.3 595.6 590 631.2C620 691.7 619 764.5 587.4 824.8C574.4 849.5 553.6 874.8 532 892.1C487.6 927.6 429 944.3 372.5 937.5zM426.5 862.2C439.1 859.5 446.8 856.7 459.5 850.6C498.3 831.7 525.4 796.7 535.2 752.9C538.2 739.4 538.4 713.4 535.7 699.7C524 641.2 478.3 596.9 420.1 587.4C408.8 585.6 386.5 585.6 375.4 587.5C324.2 596.2 281 633.6 265.2 683.1C256.4 710.5 256.5 741.1 265.5 768.6C281.8 818.3 324.6 854.8 377 863.5C388.8 865.5 414.5 864.8 426.5 862.2zM672 662.5V632H953V693H672V662.5zM721 541V510H953V572H721V541zM770 419V388H953V450H770V419zM222 406C194.6 403.5 164.5 393.1 142 378.3C103.1 352.8 76.2 312.5 65.8 264.5C63.7 254.8 63.6 251.9 63.3 176.8L62.9 99H136.9L137.3 173.7C137.7 259.5 137.1 254.3 147.5 275.6C160.8 303 183.3 321.4 213.5 329.7L223.5 332.5L392.5 332.8C564.3 333.1 569.4 333 584 329.3C614.4 321.7 640.4 298.4 652.6 267.6C659.5 250.5 659.3 252.2 659.7 171.8L660.1 99H734V167.4C734 207.8 733.6 240 733 246.1C728.7 287.9 712.2 324.3 684.6 352.8C654 384.4 617.6 401.8 573.5 406C560.6 407.2 235.4 407.2 222 406z" />
    <glyph glyph-name="commercial_fentiao_home_related_black"
      unicode="&#xE029;"
      horiz-adv-x="1024" d=" M372.5 937.5C274.9 925.6 198.1 848.9 186 751C184.5 738.6 184.8 709.9 186.5 696.5C194.5 635.9 228.6 581.7 280.8 546.7C300.3 533.6 331.4 520.7 354.5 516.1C371.9 512.6 384.2 511.7 405 512.3C446.8 513.4 481.2 524.2 515.7 547C548.5 568.6 572.3 595.6 590 631.2C620 691.7 619 764.5 587.4 824.8C574.4 849.5 553.6 874.8 532 892.1C487.6 927.6 429 944.3 372.5 937.5zM426.5 862.2C439.1 859.5 446.8 856.7 459.5 850.6C498.3 831.7 525.4 796.7 535.2 752.9C538.2 739.4 538.4 713.4 535.7 699.7C524 641.2 478.3 596.9 420.1 587.4C408.8 585.6 386.5 585.6 375.4 587.5C324.2 596.2 281 633.6 265.2 683.1C256.4 710.5 256.5 741.1 265.5 768.6C281.8 818.3 324.6 854.8 377 863.5C388.8 865.5 414.5 864.8 426.5 862.2zM672 662.5V632H953V693H672V662.5zM721 541V510H953V572H721V541zM770 419V388H953V450H770V419zM222 406C194.6 403.5 164.5 393.1 142 378.3C103.1 352.8 76.2 312.5 65.8 264.5C63.7 254.8 63.6 251.9 63.3 176.8L62.9 99H136.9L137.3 173.7C137.7 259.5 137.1 254.3 147.5 275.6C160.8 303 183.3 321.4 213.5 329.7L223.5 332.5L392.5 332.8C564.3 333.1 569.4 333 584 329.3C614.4 321.7 640.4 298.4 652.6 267.6C659.5 250.5 659.3 252.2 659.7 171.8L660.1 99H734V167.4C734 207.8 733.6 240 733 246.1C728.7 287.9 712.2 324.3 684.6 352.8C654 384.4 617.6 401.8 573.5 406C560.6 407.2 235.4 407.2 222 406z" />
    <glyph glyph-name="commercial_fentiao_home_robot_black"
      unicode="&#xE02A;"
      horiz-adv-x="1024" d=" M365 833V796H659V870H365V833zM252.4 754.5C227.4 749.1 206.6 730.3 198.2 705.5L195.5 697.5L195.2 659.8L194.9 622H166.9C134.3 622 128.3 621.2 114.5 614.5C95.1 605.3 81.9 589.7 75.3 568.5C73.6 562.8 73.5 556.6 73.5 451C73.5 344.7 73.6 339.2 75.4 333.5C83.2 308.6 100.6 291 125.5 282.9C132 280.8 134.5 280.6 163.7 280.2L194.9 279.8L195.2 248.2C195.7 213.5 195.8 212.4 202.4 199C211.5 180.4 228 166.8 248.5 160.8L256.5 158.5H767.5L775.5 160.8C796 166.8 812.5 180.4 821.6 199C828.2 212.4 828.3 213.5 828.8 248.2L829.1 279.8L860.3 280.2C889.5 280.6 892 280.8 898.5 282.9C923.4 291 940.8 308.6 948.6 333.5C950.4 339.2 950.5 344.5 950.5 450.5C950.5 574.7 951 566.4 943.3 581.8C935.9 596.4 924.1 607.8 908.7 615C895.6 621.1 889.2 622 857.1 622H829.1L828.8 659.8L828.4 697.5L825.7 705.5C821.9 716.8 816.7 725.2 808 734.1C799.5 742.7 790.2 748.6 778.5 752.7L770.5 755.5L514.5 755.7C303.8 755.8 257.4 755.6 252.4 754.5zM755 457V232H269V682H755V457zM195 451V354H147V548H195V451zM877 451V354H829V548H877V451zM381 457V341H448V573H381V457zM576 457V341H643V573H576V457z" />
    <glyph glyph-name="commercial_fentiao_mine_fuwuhao_black"
      unicode="&#xE02B;"
      horiz-adv-x="1024" d=" M486.6 928C468.8 925.2 446.8 917.9 433 910.3C412.7 899.1 415.9 902.1 278.6 765.1C207.2 693.8 143.9 630.2 138 623.7C109.8 593 95.9 560.1 94.3 520.5C92.8 481.5 103.6 446.7 126.9 416.2C135.4 404.9 153 387.1 288.6 252.5C422.3 119.7 417.7 124 440.8 112.5C453.2 106.4 465.2 102.2 480 98.8C489.3 96.8 493 96.5 513 96.5C532.5 96.5 536.9 96.8 545.5 98.8C571.6 104.5 595.5 115.8 615 131.5C618.6 134.5 682.8 198.5 757.6 273.7C887.9 404.8 893.9 411 901.3 422C914.3 441.6 922.3 461.5 926.1 484.1C927.9 494.9 928.2 499.1 927.7 516C927 542.3 923.5 557.2 912.8 580C901.7 603.7 906.3 598.6 775.9 730C629.2 877.7 614.9 891.8 603.7 899.7C586.6 911.7 564 921.6 543.2 926.1C535.6 927.7 529.1 928.3 513 928.5C501.7 928.7 489.9 928.5 486.6 928zM533.5 850.5C543.8 847.5 554.6 842 562.8 835.6C565.9 833.2 602.5 797 644.1 755.3C730 669.2 724.5 675.8 724.5 659C724.5 643.7 723.8 642.6 692.1 610.9C670.7 589.5 664.4 583.8 659.9 581.6C649.4 576.6 638.3 576.5 627.3 581.4C622.1 583.7 612.2 593.3 527.5 678.3C475.8 730.2 430.8 774.7 427.5 777.2C424.2 779.7 418.7 783.3 415.3 785.2L409.1 788.6L432.8 812.2C445.8 825.1 458.5 837.1 461 838.7C471 845.4 484.4 850.8 496.7 853C505.6 854.6 523.6 853.4 533.5 850.5zM368.5 724.5C371.7 723.6 376 722 377.9 720.8C382.2 718.3 433 668.1 433 666.4C433 665.8 433.7 664.6 434.7 663.9C438.8 660.4 441.5 647.9 439.9 639.2C437.6 626.9 440.3 629.9 342.1 532C291.6 481.7 248.2 437.9 245.7 434.7C243.1 431.6 239.2 425.5 236.9 421.4L232.7 413.8L211.8 434.7C200.3 446.1 188.4 458.8 185.4 462.8C178.9 471.3 173.8 481.9 170.8 492.8C167.8 503.6 167.9 523.2 170.9 534.5C173.6 544.7 179.5 556.7 185.8 565C188.6 568.6 224.3 604.8 265.2 645.6C342.7 722.8 342.7 722.9 353.1 724.9C359.7 726.2 362 726.1 368.5 724.5zM813.1 587.3C837.2 562.9 840.1 559.3 846 546.7C852.1 533.6 853.5 526.6 853.4 510.5C853.4 498.3 853 495.4 850.7 487.7C847.6 477.7 844.5 471.2 838.7 462.5C836.2 458.8 805.8 427.5 759.2 380.8C674.8 296.3 678 299 664 298.2C658 297.9 655.3 298.2 650.5 300C645 302.1 642.4 304.4 616.8 329.8C583.5 362.9 582.5 364.3 582.5 379C582.5 396.5 575.8 388.7 680 492.2C730 541.9 773.3 585.5 776.3 589.3C779.2 593 783.4 599.2 785.6 603C787.7 606.8 789.8 610 790.1 610C790.4 610 800.8 599.8 813.1 587.3zM578 523.1C582.1 520.2 587.3 516.9 589.5 515.8C591.7 514.7 593.7 513.6 593.9 513.4C594.2 513.2 580.6 499.2 563.9 482.2C535.2 453.4 526.1 442.9 520.9 432.8L519 429L485.8 462.5C453.4 495.3 445.4 502.4 433.7 509L427.8 512.3L459.2 543.9C489.6 574.4 494.5 579.9 500.5 590.3L503.3 595.1L536.9 561.7C557.7 541 573.4 526.3 578 523.1zM395.4 443.5C400.4 441 415.6 426.1 497.4 343.9C582.6 258.3 594.5 246.6 602.5 241.5C607.5 238.3 611.7 235.5 612 235.3C612.8 234.7 570.7 193 564.5 188.3C556.6 182.3 547.1 177.6 536.3 174.3C528.5 172 525.9 171.7 513 171.7S497.5 172 489.7 174.3C479.2 177.5 470.7 181.7 462.5 187.5C459.2 189.9 421.8 226.6 379.4 269.2C305.1 343.6 302.1 346.7 300 352.5C298.2 357.4 297.9 360.1 298.2 367C298.8 381.4 300.1 383.4 328.3 411.8C355.7 439.4 357.9 441.4 365.8 444.7C370.7 446.7 372.8 447 380.6 446.7C388.2 446.5 390.5 446 395.4 443.5z" />
    <glyph glyph-name="commercial_fentiao_mine_promote_black"
      unicode="&#xE02C;"
      horiz-adv-x="1024" d=" M229.5 917.9C202.5 915.1 181.3 900.4 170 876.9C161.8 859.7 162.5 895.6 162.5 512C162.5 128.4 161.8 164.3 170 147.1C181.7 122.7 202.6 108.8 231.8 106C238.5 105.4 303.8 105 407.8 105H573V179L404.8 179.2L236.5 179.5V844.5H787.5L787.8 653.8L788 463H862L861.7 658.8C861.4 878.2 862 860.1 854 876.9C842.4 901.1 821.7 915 792.9 918C780.5 919.2 241.6 919.2 229.5 917.9zM327 683V646H697V720H327V683zM327 512V475H583V549H327V512zM737.5 423.3C735.5 401.6 725.4 376.9 709.8 355.8C706.5 351.2 694.9 338.7 684 328C663.6 307.8 655.8 298.4 646.6 282.7C631.8 257.6 625.6 235.5 625.8 209C626.3 141.1 673.3 83.5 740.9 67.9C752 65.3 778.9 64.3 791.3 65.9C823 70.1 852.9 84.9 875.3 107.3C892.4 124.4 903.5 142.2 910.9 164.5C917.9 185.7 919.9 204.2 918.1 231.3C914.5 282.4 901.8 317.1 878 341C871.5 347.5 856.9 358 854.4 358C853.6 358 853.1 353.1 852.7 341.8C851.8 315 846.4 302.1 836.2 301.8C829.2 301.6 826.4 306.9 819 334.8C813 357.4 808.2 371.6 803.3 381.4C794.9 398.1 782.6 412 769.1 420C762 424.2 748.9 429.2 741.9 430.4L738.2 431L737.5 423.3zM763 305C772.2 271.5 789.1 251.2 814.5 242.8C820.3 240.9 823.7 240.5 834.5 240.5C841.7 240.5 849.1 240.8 851.1 241.3C854.1 241.9 854.9 241.7 855.4 240.4C855.8 239.5 856.3 231.3 856.6 222.1C857.1 208.7 856.9 203.8 855.6 196.5C849.3 163.5 825.2 137.6 792.5 128.9C781.3 125.9 762.7 125.9 751.5 128.9C722.1 136.7 699.3 159 690.4 188.5C688.2 195.9 687.7 199.6 687.6 209C687.5 222.9 689.1 229.4 696 243.6C702.3 256.7 710.9 268.2 722.8 279.4C738.9 294.6 747.3 303.2 753.5 310.9C756.8 314.9 759.5 317.8 759.6 317.4C759.7 316.9 761.3 311.3 763 305z" />
    <glyph glyph-name="commercial_fentiao_mine_shengyitong_black"
      unicode="&#xE02D;"
      horiz-adv-x="1024" d=" M216.656 805.68L473.84 724L410.96 687.728A202.56 202.56 0 0 1 309.328 512C309.328 406.24 390.64 318.64 495.072 310.032L499.04 309.744L514.976 308.736L643.04 114.24L596.896 104.672C569.168 98.912 540.752 96 512 96C282.24 96 96 282.24 96 512C96 614.032 132.912 710.4 198.624 785.6L202.848 790.352L216.656 805.68zM237.216 732L234.912 729.12A350.36800000000005 350.36800000000005 0 0 1 160 512C160 317.6 317.6 160 512 160L520.112 160.096L528.208 160.368L535.76 160.8L478.752 247.408L477.696 247.52C348.96 264.048 249.76 372.016 245.472 503.12L245.376 507.6L245.328 512A266.24 266.24 0 0 0 320.608 697.712L324.384 701.536L326.528 703.632L237.216 732zM512 928C741.76 928 928 741.76 928 512C928 409.968 891.088 313.6 825.376 238.4L821.152 233.648L807.344 218.32L550.16 300L613.04 336.272A202.56 202.56 0 0 1 714.672 512C714.672 617.776 633.36 705.36 528.912 713.968L524.96 714.256L509.008 715.264L380.96 909.744L427.088 919.328A417.664 417.664 0 0 0 512 928zM512 864L503.888 863.904L495.792 863.632L488.224 863.2L545.232 776.64L546.304 776.48C675.04 759.968 774.224 651.984 778.528 520.88L778.624 516.4L778.672 512A266.24 266.24 0 0 0 703.392 326.288L699.616 322.464L697.472 320.384L786.768 292L789.088 294.88A350.176 350.176 0 0 1 863.776 499.2L863.936 505.856L864 512C864 706.4 706.4 864 512 864zM509.136 665.312L531.584 620.48A187.56799999999998 187.56799999999998 0 0 1 566.56 571.328A183.104 183.104 0 0 1 615.296 536.72L660.496 514.336L615.04 492.48C595.776 483.168 579.328 471.664 565.616 457.968A171.52 171.52 0 0 1 531.84 409.328L509.856 362.736L487.392 409.088A177.92 177.92 0 0 1 453.04 457.792A182.288 182.288 0 0 1 403.888 492.528L357.952 515.072L404.224 536.912A171.52 171.52 0 0 1 452.768 570.832A178.88 178.88 0 0 1 487.36 620.16L509.12 665.312zM509.808 562.032L508.304 559.952A219.48800000000003 219.48800000000003 0 0 0 463.68 515.36L462.432 514.464L464.064 513.264A221.418 221.418 0 0 0 483.36 497.008L487.872 492.608A220.85699999999997 220.85699999999997 0 0 0 508.48 468.832L509.344 467.68L510.304 469.008C515.312 475.776 520.704 482.208 526.432 488.304L530.8 492.8C538.16 500.176 546.128 507.04 554.64 513.36L556.8 514.928L555.36 515.984A224.73600000000002 224.73600000000002 0 0 0 536.224 532.144L531.744 536.48C524.384 543.84 517.552 551.728 511.2 560.128L509.808 562.048z" />
    <glyph glyph-name="commercial_fentiao_mine_videoclip_black"
      unicode="&#xE02E;"
      horiz-adv-x="1024" d=" M233 900.1C195.9 892.2 165.2 865.4 152.6 829.9C145.6 810.3 146 825.4 146 583.3V365H220L220.2 583.3L220.5 801.5L223.1 807C228.6 818.5 238.5 825.9 251 827.9C260.3 829.4 765.4 829.4 773.5 827.9C785.5 825.7 795.8 817.9 800.8 807.2L803.5 801.5L803.8 583.3L804 365H878V583.3C878 825.4 878.4 810.3 871.4 829.9C858.5 866.1 826.8 893.3 789 900.4C781.7 901.8 751.3 902 511.1 901.9C255.1 901.9 241.1 901.8 233 900.1zM356 655.5L328.5 628L392.3 564.2L456 500.5L400.8 445.4L345.5 390.2L332.5 389.7C263 386.8 207 327.2 207 256C207 201.4 239.9 152.2 290.2 131.6C305.8 125.2 317.3 122.9 336.6 122.3C356.7 121.7 367.5 123.1 384 128.6C429.6 143.8 463 181.5 473.1 229.3C476.2 243.8 476.2 268.2 473.1 282.7C467.5 309.2 455.8 331 436.8 350.5L427 360.5L469.3 402.8L511.5 445L554 402.5L596.5 360L587 350.3C568.2 331 556.5 309.1 550.9 282.7C547.8 268.2 547.8 243.8 550.9 229.3C556.3 203.8 567.7 182 585.2 163.4C605 142.6 631.9 128.3 660.4 123.4C675.1 120.9 700.8 121.9 714.8 125.4C775.3 140.7 817 193.9 817 256C817 327.4 760.9 386.9 691 389.7L677.5 390.2L622.2 445.3L567 500.5L630.7 564.2L694.5 628L666.7 655.7L639 683.5L575.2 619.7L511.5 556L448 619.5C413.1 654.4 384.3 683 384 683C383.7 683 371.1 670.6 356 655.5zM356.4 314.4C365.9 312.1 375.7 306.4 383.6 298.5C396.1 286 401.4 273.4 401.4 256S396.1 226 383.6 213.5C358 188 316.5 190.3 294.2 218.5C276.6 240.8 276.6 271.3 294.2 293.5C309.1 312.3 332.5 320.2 356.4 314.4zM701 313.4C717 308.4 730.2 296.7 737.4 280.9C745.1 264.2 745.1 247.8 737.4 231.1C727.4 209.3 706.8 196 682.9 195.9C666.3 195.8 652.3 201.6 640.4 213.5C629.2 224.7 623.4 237.1 622.4 252.5C620.5 279.3 638.6 305.3 665.2 313.9C675.5 317.2 689.3 317 701 313.4z" />
    <glyph glyph-name="commercial_fentiao_mine_wallet_black"
      unicode="&#xE02F;"
      horiz-adv-x="1024" d=" M155.5 876.5C128 870.4 106.9 850.2 99.3 823C97.6 816.8 97.5 802.7 97.5 512S97.6 207.2 99.3 201C106.3 176 125.2 156.5 150 148.8L157.5 146.5H867.5L875.5 149.2C900 157.7 918.5 177.2 924.6 201.2C926.4 208.2 926.5 219.1 926.5 512.5C926.5 802.7 926.4 816.8 924.7 823C917.8 847.7 899.4 866.9 874.5 875.2L867.5 877.5L514.5 877.7C222 877.8 160.5 877.6 155.5 876.5zM853 512V220H171V804H853V512zM609 512V475H781V549H609V512z" />
    <glyph glyph-name="commercial_fentiao_orderform_crown_black"
      unicode="&#xE030;"
      horiz-adv-x="1024" d=" M497 882.8C485 878.6 476.4 871.7 470.5 861.5C468.9 858.9 448 806.6 423.9 745.2C399.8 683.7 379.7 633.6 379.1 633.7C378.6 633.9 332.8 654 277.3 678.6C166.1 727.8 167.7 727.2 153.5 725.2C132.9 722.2 116.7 707.4 112 687.1C108.9 673.8 107 680.7 166.9 492C197.3 396.6 224.1 312.2 226.7 304.5C233.2 284.4 236.7 278.3 247.5 267.4C255.3 259.5 257.9 257.6 266 253.7C283.6 245.3 261 246 514.2 246C735.3 246 739.8 246 747.4 248C768.6 253.4 785.7 267.2 795 286.5C800.1 297 904.8 661.8 905.7 672.2C907.7 695.4 892.1 717.6 869.5 723.5C862 725.4 852.1 725.4 844.6 723.5C841.5 722.7 797.4 702.2 746.8 677.9C696.1 653.7 654.4 634.2 654 634.7C653.6 635.1 631.6 685.7 605 747S555.1 860.9 553.2 863.8C548.5 871 541.8 876.6 533.1 880.8C526.2 884.1 524.9 884.4 514.6 884.7C505 885 502.6 884.8 497 882.8zM567 648.2C594.2 585.4 616.8 534 617.1 534C617.7 534 805.1 623.5 814.2 628.1C816.6 629.3 817.8 629.6 817.5 628.8C816.7 626.4 729 320 729 319.5C729 319.2 632.4 319.1 514.3 319.2L299.6 319.5L250.2 474.8C223 560.3 201 630.3 201.2 630.6C201.5 630.8 250.9 609.2 311.1 582.6C417.7 535.4 420.5 534.2 421.6 536.3C422.2 537.5 443.1 590.8 468.1 654.7L513.5 770.9L515.5 766.7C516.6 764.4 539.8 711.1 567 648.2zM243 142V105H780V179H243V142z" />
    <glyph glyph-name="commercial_fentiao_orderform_refund_black"
      unicode="&#xE031;"
      horiz-adv-x="1024" d=" M482.2 921C368.1 912 263.9 857.6 193.4 770.1L185 759.8V825H99V597H325V683L281.1 683.2L237.2 683.5L243.2 692.5C254.7 709.5 265.5 722.5 282.5 739.6C309.2 766.5 335.3 785.6 366.8 801.4C455.9 846.1 560.9 847.2 650.7 804.5C717.8 772.6 772.6 717.8 804.5 650.7C846.3 562.9 846.3 461.1 804.5 373.3C772.6 306.2 717.8 251.4 650.7 219.5C562.9 177.7 461.1 177.7 373.3 219.5C306.2 251.4 251.7 306 219.6 373.2C201.4 411.3 191.7 449.1 188.8 493.8L187.6 512H101.7L102.4 496.2C106.2 406.6 136.9 324.3 192.5 255C205.4 238.9 232.1 211.6 248 198.3C311.8 144.7 386.4 113.3 472 103.8C487.4 102.1 536 102.1 552 103.8C633.9 112.6 704.9 141.6 769.5 192.9C784.9 205.1 818.9 239.1 831.1 254.5C882.3 319.1 911.5 390.3 920.2 472C921.9 488.3 921.9 535.7 920.2 552C910.5 643.2 873.2 725.9 812.7 790.5C743.7 864.2 657.1 907.9 557 919.5C540.9 921.4 498.1 922.2 482.2 921zM390 700.4C373.2 684.7 359.5 671.3 359.5 670.5C359.5 669.8 374.5 653.2 392.8 633.6L426.1 598H355V512H469V470H355V384H469V298H555V384H669V470H555V512H669V598L634.1 598.2L599.3 598.5L633.1 634C651.7 653.5 666.9 669.7 666.9 670C667 670.9 605.7 728.5 604.6 728.5C604.1 728.5 583.3 707.2 558.5 681.1C533.7 655 513 633.5 512.5 633.3C511.9 633.2 491.3 654.6 466.7 681C442 707.4 421.6 729 421.2 729C420.8 729 406.8 716.1 390 700.4z" />
    <glyph glyph-name="commercial_fentiao_robot_diagnosis_black"
      unicode="&#xE032;"
      horiz-adv-x="1024" d=" M455.113 938.66C659.328 938.66 824.87 773.12 824.87 568.888A368.165 368.165 0 0 0 737.48 330.13L884.078 183.534L832.348 131.84L684.982 279.223A368.201 368.201 0 0 0 455.113 199.113C250.88 199.113 85.34 364.672 85.34 568.87C85.34 773.12 250.88 938.66 455.113 938.66zM455.113 865.519C291.273 865.518 158.483 732.708 158.483 568.887C158.482 405.047 291.29 272.274 455.112 272.274A295.131 295.131 0 0 1 636.398 334.08L684.983 382.647L685.53 382.08A295.406 295.406 0 0 1 751.744 568.869C751.744 732.727 618.934 865.518 455.131 865.518zM410.733 665.71L522.515 563.84L611.712 663.022L666.094 614.126L527.67 460.16L415.689 562.23L319.525 455.955L265.289 505.034L410.734 665.71z" />
    <glyph glyph-name="commercial_fentiao_robot_throw_black"
      unicode="&#xE033;"
      horiz-adv-x="1024" d=" M893.989 377.82L944.859 325.247L709.047 97.078L559.835 245.523L611.42 297.362L709.742 199.534L893.989 377.838zM776.777 918.344C797.44 918.345 809.801 916.005 822.73 909.202C835.22 902.62 845.275 892.71 852.005 880.311C858.569 868.242 861.11 856.649 861.44 838.4L861.458 834.377V454.034H788.315V836.444L788.205 840.008L788.06 842.752A39.79 39.79 0 0 1 787.968 843.849L787.84 844.8L786.743 844.983L784.403 845.093L778.605 845.203H243.602L239.58 845.11L237.275 844.983L236.16 844.8L236.032 843.886L235.849 841.472L235.721 838.345L235.703 834.377V187.538L235.794 183.991L235.941 181.248L236.032 180.151L236.16 179.237L237.257 179.017L239.597 178.89L245.395 178.798H528.091V105.655H247.26C226.56 105.655 214.2 107.995 201.271 114.798A70.437 70.437 0 0 0 171.995 143.689C165.431 155.758 162.89 167.351 162.56 185.6L162.542 189.623V834.377C162.542 855.003 164.974 867.383 171.995 880.311A70.437 70.437 0 0 0 201.271 909.202C213.339 915.547 224.914 918.016 243.218 918.31L247.223 918.345H776.777zM583.113 548.571V475.43H327.113V548.57H583.113zM696.87 719.232V646.089H327.13V719.232H696.87z" />
    <glyph glyph-name="commercial_fentiao_shop_precise_grey"
      unicode="&#xE034;"
      horiz-adv-x="1024" d=" M487.6 913.9C404.1 908.9 325.2 878.4 259 825.4C241.7 811.6 212.4 782.3 198.6 765C179.8 741.5 160.7 711.3 148.9 686.5C103.3 590.2 96.9 481.8 130.9 381.9C146.1 337.3 168.5 296.6 198.6 259C212.5 241.6 241.7 212.4 259 198.6C318.5 151.1 387.1 121.9 461 112.6C471.4 111.3 501.4 109.1 509.8 109H512V178.7L497.8 179.4C441.5 182.2 389.2 197.9 341.5 226.3C261.4 273.9 203.2 356.3 185.5 447.1C180.7 471.7 179.6 483.8 179.6 512C179.6 540.2 180.7 552.3 185.5 576.9C193.8 619.2 212 662.5 237.1 699.5C259.1 731.9 292.1 764.9 324.5 786.9C361.5 812 404.8 830.2 447.1 838.5C471.7 843.3 483.8 844.4 512 844.4C540.2 844.4 552.3 843.3 576.9 838.5C628 828.5 678.2 805 720.5 771.4C734.6 760.1 760.1 734.6 771.4 720.5C816.1 664.3 841 598.3 844.6 526.2L845.3 512H915.2L914.5 524.8C911.4 587 898.7 638.2 873.5 689.5C853.7 729.8 829.2 763.9 796.6 796.6C751.4 841.7 700.7 873.3 640.5 893.6C591.9 910.1 539.6 917 487.6 913.9zM497.7 677.9C447.5 672.1 401.6 643.9 373.7 601.9C339.3 549.9 335.6 482.3 364.3 426.7C380.9 394.5 407.4 368.5 440.5 352C463.1 340.7 483.2 335.3 505.8 334.3L518 333.7V402.7L508.3 403.8C482.7 406.8 462.9 416.2 445.4 433.5C426.5 452.2 416.3 475.3 415.2 501.8C414.9 509.3 415.2 517 416 521.8C422.5 562.8 451.7 594.8 492.8 606.2C499.2 608 503.3 608.4 517.5 608.4C537.3 608.4 545.2 606.8 560.6 599.6C595.8 582.9 616.6 552.9 620.6 512.8L621.2 506H690.3L689.7 518.3C688.7 540.8 683.3 560.6 672 583.5C646.3 635.3 597.8 669.9 540.2 677.5C528.8 679.1 508.9 679.2 497.7 677.9zM582.2 470C571.8 467.3 565.5 463.6 557.5 455.5C543 441 537.7 420.6 543.5 401.3C545.1 395.9 664.7 111.6 669.7 101.2C673.6 93.2 684.7 82.2 693 78.2C711.5 69.2 732.2 70.2 749 81C759.4 87.7 762.9 92.9 791.5 144.8L818.5 193.8L867.9 221.1C913.8 246.5 917.9 249 924.6 255.5C935.8 266.4 941 278.9 941 294.7C941 304.4 939 312.2 934.4 321.1C930.5 328.5 921.3 338 914 342.2C906.3 346.6 615 469 608.6 470.5C600.4 472.5 591 472.3 582.2 470zM736.2 337.4C793 313.4 840.3 293.5 841.4 293.1C842.8 292.5 835.1 287.8 809.4 273.6C790.7 263.3 773.1 253 770.1 250.7C762.6 244.9 758 237.8 738.5 202.2C729.2 185.1 721.3 171 721 171C720.7 171 700.6 217.9 676.5 275.2C625.7 395.5 631.7 381 632.3 381C632.6 381 679.3 361.4 736.2 337.4z" />
    <glyph glyph-name="commercial_fentiao_shop_robot_grey"
      unicode="&#xE035;"
      horiz-adv-x="1024" d=" M365 833V796H659V870H365V833zM252.4 754.5C227.4 749.1 206.6 730.3 198.2 705.5L195.5 697.5L195.2 659.8L194.9 622H166.9C134.3 622 128.3 621.2 114.5 614.5C95.1 605.3 81.9 589.7 75.3 568.5C73.6 562.8 73.5 556.6 73.5 451C73.5 344.7 73.6 339.2 75.4 333.5C83.2 308.6 100.6 291 125.5 282.9C132 280.8 134.5 280.6 163.7 280.2L194.9 279.8L195.2 248.2C195.7 213.5 195.8 212.4 202.4 199C211.5 180.4 228 166.8 248.5 160.8L256.5 158.5H767.5L775.5 160.8C796 166.8 812.5 180.4 821.6 199C828.2 212.4 828.3 213.5 828.8 248.2L829.1 279.8L860.3 280.2C889.5 280.6 892 280.8 898.5 282.9C923.4 291 940.8 308.6 948.6 333.5C950.4 339.2 950.5 344.5 950.5 450.5C950.5 574.7 951 566.4 943.3 581.8C935.9 596.4 924.1 607.8 908.7 615C895.6 621.1 889.2 622 857.1 622H829.1L828.8 659.8L828.4 697.5L825.7 705.5C821.9 716.8 816.7 725.2 808 734.1C799.5 742.7 790.2 748.6 778.5 752.7L770.5 755.5L514.5 755.7C303.8 755.8 257.4 755.6 252.4 754.5zM755 457V232H269V682H755V457zM195 451V354H147V548H195V451zM877 451V354H829V548H877V451zM566 497.9L487.6 421.9L446 463.5C423.2 486.3 404 505 403.5 505C402.9 505 390.9 493.4 376.7 479.2L351 453.5L418.9 385.6L486.7 317.8L591.9 419.5L697 521.2L692 526.7C679.7 540.1 646.4 574 645.5 573.9C645 573.9 609.2 539.7 566 497.9z" />
    <glyph glyph-name="commercial_fentiao_shop_shoplive_black"
      unicode="&#xE036;"
      horiz-adv-x="1024" d=" M180.3 853C154.6 849.2 133.7 831.8 124.8 807L122.5 800.5L122.2 521C121.9 263.9 122.1 240.9 123.6 234.5C128.4 214 144 195.6 163.1 187.9C177.1 182.2 165.4 182.6 345.8 182.3L512 181.9V256H195V780H792V487H866L865.8 642.8C865.5 797.7 865.5 798.5 863.4 804.6C857 823.2 844.5 838.2 828.9 845.9C812 854.3 847.6 853.4 497.5 853.6C325.9 853.7 183.2 853.4 180.3 853zM450.9 620.5C444 618.3 437 613 432.8 606.9C425.9 596.9 426 598.4 426 512.9C426 465.9 426.4 434.2 427 431C429.1 419.7 436.6 409.9 446.8 405.2C451.7 402.9 453.8 402.5 462 402.5S472.2 402.9 476.5 405.1C486.8 410.4 597.5 484.7 600.9 488.5C607 495.5 609.5 502.3 609.5 512S607 528.5 600.9 535.5C597.5 539.4 486.4 613.9 476.6 618.8C470.4 621.9 457.8 622.7 450.9 620.5zM643 407.4C633 405.3 624.5 400.6 617.1 393.1C613.5 389.5 609.3 384.2 607.9 381.5C605.7 377.5 573.6 277.4 568.4 258.5C566.4 251.6 566.6 236.8 568.6 230C574 211.6 589.3 197 607.4 192.9L612.8 191.7L613.2 152.1C613.6 113.9 613.7 112.3 615.8 106.9C621 93.8 630.5 84.7 642.9 81C649.4 79 651.7 79 758 79.2L866.5 79.5L873.2 82.7C882.6 87.1 889.2 93.6 893.8 102.9L897.5 110.4L897.8 151.6C898.1 197.5 897.4 193.1 905 194.5C906.9 194.9 911.7 196.7 915.7 198.6C929.7 205.2 941.1 220.2 944.1 235.8C946.7 249.7 946 252.9 924 317.9C913 350.6 902.7 379.6 901.2 382.4C894.9 394.2 880.6 404.5 866.3 407.5C856.3 409.6 652.8 409.5 643 407.4zM864.6 300.7C879.2 256.8 879.8 255 877.7 254.6C873.1 253.6 632 253.2 632 254.2C632 254.9 658.7 340.9 660.5 345.8C660.8 346.8 680.3 347 755.1 346.8L849.3 346.5L864.6 300.7zM836 167V141H675V192L748.8 192.3C789.3 192.4 825.5 192.6 829.3 192.8L836 193V167z" />
    <glyph glyph-name="commercial_fentiao_shop_shopvideo_black"
      unicode="&#xE037;"
      horiz-adv-x="1024" d=" M229.5 917.9C202.5 915.1 181.3 900.4 170 876.9C161.8 859.7 162.5 895.6 162.5 512C162.5 128.4 161.8 164.3 170 147.1C181.7 122.7 202.6 108.8 231.8 106C238.5 105.4 296 105 383.8 105H525V179L380.8 179.2L236.5 179.5V844.5H787.5L787.8 653.8L788 463H862L861.7 658.8C861.4 878.2 862 860.1 854 876.9C842.4 901.1 821.7 915 792.9 918C780.5 919.2 241.6 919.2 229.5 917.9zM327 683V646H697V720H327V683zM327 512V475H583V549H327V512zM643 407.4C633 405.3 624.5 400.6 617.1 393.1C613.5 389.5 609.3 384.2 607.9 381.5C605.7 377.5 573.6 277.4 568.4 258.5C566.4 251.6 566.6 236.8 568.6 230C574 211.6 589.3 197 607.4 192.9L612.8 191.7L613.2 152.1C613.6 113.9 613.7 112.3 615.8 106.9C621 93.8 630.5 84.7 642.9 81C649.4 79 651.7 79 758 79.2L866.5 79.5L873.2 82.7C882.6 87.1 889.2 93.6 893.8 102.9L897.5 110.4L897.8 151.6C898.1 197.5 897.4 193.1 905 194.5C906.9 194.9 911.7 196.7 915.7 198.6C929.7 205.2 941.1 220.2 944.1 235.8C946.7 249.7 946 252.9 924 317.9C913 350.6 902.7 379.6 901.2 382.4C894.9 394.2 880.6 404.5 866.3 407.5C856.3 409.6 652.8 409.5 643 407.4zM864.6 300.7C879.2 256.8 879.8 255 877.7 254.6C873.1 253.6 632 253.2 632 254.2C632 254.9 658.7 340.9 660.5 345.8C660.8 346.8 680.3 347 755.1 346.8L849.3 346.5L864.6 300.7zM836 167V141H675V192L748.8 192.3C789.3 192.4 825.5 192.6 829.3 192.8L836 193V167z" />
    <glyph glyph-name="commercial_fentiao_tabbar_data_black"
      unicode="&#xE038;"
      horiz-adv-x="1024" d=" M158.1 864.9C129.8 860.2 106.4 838 98.9 808.9C96.8 800.8 96.8 223.2 98.9 215.1C102.7 200.4 110.1 187.7 120.9 177.8C132.2 167.4 144.3 161.5 159.1 159.1C168 157.6 856 157.6 864.9 159.1C894.2 163.8 917.5 185.5 925.1 215.1C927.2 223.2 927.2 800.8 925.1 808.9C921.3 823.6 913.9 836.3 903.1 846.2C891.7 856.7 879.8 862.5 865 864.9C856.8 866.3 166.1 866.2 158.1 864.9zM853 512V232H171V792H853V512zM373.5 540L291.5 458L317.8 431.8L344 405.5L400 461.5L456 517.5L511.8 461.7C542.4 431.1 568 406 568.5 406C569.1 406 606.4 442.9 651.5 488L733.5 570L707.2 596.2L681 622.5L624.7 566.2L568.5 510L512.5 566C481.7 596.8 456.3 622 456 622C455.7 622 418.6 585.1 373.5 540z" />
    <glyph glyph-name="commercial_fentiao_tabbar_logo_black"
      unicode="&#xE039;"
      horiz-adv-x="1024" d=" M389.248 939.429L433.463 905.838A1568.7310000000002 1568.7310000000002 0 0 0 467.803 879.013L469.45 877.623L477.586 870.217C555.43 797.934 589.093 708.023 562.56 610.871L556.288 590.153A149.577 149.577 0 0 1 551.351 565.613C550.93 561.409 550.875 557.752 551.168 554.826C552.101 545.408 553.819 543.488 562.597 540.763C565.21 539.977 570.935 540.07 575.177 541.458A27.245999999999995 27.245999999999995 0 0 1 579.895 543.598L581.614 544.622L582.71 545.353C584.923 548.571 587.045 553.838 589.019 561.006L590.281 566.07C591.58 571.429 592.75 577.59 593.811 584.594L594.797 591.835L595.712 599.625A448 448 0 0 1 596.535 607.927L602.935 679.607L657.06 632.21C730.368 567.954 767.726 487.552 767.726 393.4C767.707 208.019 625.024 92.416 433.719 92.416C260.297 92.398 126.427 228.206 126.427 393.381C126.427 419.346 130.121 446.19 135.753 467.986C154.313 539.575 182.583 591.104 240.677 656.33L242.01 657.847L250.386 665.417L259.75 673.957L267.922 681.563L274.907 688.22L280.686 693.906L283.41 696.686L288.274 701.806L294.09 708.169L300.855 715.666L307.602 723.365L311.003 727.845C326.967 749.33 338.871 769.499 348.855 793.746L351.323 799.89L352.841 803.968L354.47 808.594L356.187 813.806L358.016 819.584L359.899 825.893L361.93 832.786L365.111 844.123L368.494 856.723L373.32 875.372L389.23 939.448zM432.201 812.507L429.093 801.993L426.55 793.728L424.119 786.194L421.742 779.43A249.96600000000004 249.96600000000004 0 0 0 419.51 773.394C405.43 737.207 388.334 708.498 365.019 678.016L363.447 676.078L352.622 663.863L345.563 656.055L339.383 649.399L334.08 643.859L330.46 640.237L323.601 633.6L318.391 628.645L312.686 623.269L303.122 614.509L293.98 606.227L290.615 602.405C244.845 550.089 223.085 510.464 208.055 455.205L206.592 449.645A234.97100000000003 234.97100000000003 0 0 1 199.552 393.4C199.57 268.36 300.928 165.559 433.719 165.559C587.61 165.54 694.565 252.179 694.565 393.38C694.565 443.136 681.472 487.095 654.81 526.08L654.537 526.464L652.654 521.783A110.08 110.08 0 0 0 645.23 507.337L643.51 504.686C633.948 490.386 616.63 478.043 597.87 471.918C579.53 465.92 558.373 465.518 540.965 470.894C505.143 481.974 482.377 507.666 478.39 547.584A127.726 127.726 0 0 0 478.574 572.818A217.783 217.783 0 0 0 485.797 609.718L487.095 614.182L491.977 630.034L493.111 634.423C509.019 698.423 487.808 757.559 435.218 809.563L432.201 812.507zM853.321 938.68V841.143H950.857V768H853.321V670.482H780.197V768H682.66V841.143H780.178V938.66H853.34z" />
    <glyph glyph-name="commercial_general_data_drop_black"
      unicode="&#xE03A;"
      horiz-adv-x="1024" d=" M470.8 584.5L470.5 283.1L376 376.6L281.5 470.1L251.1 439.4L220.8 408.7L242.6 387C254.7 375 320.7 309.5 389.4 241.5L514.4 117.9L659.9 263.4L805.5 409L775 439.5L744.5 470L650.8 376.3L557 282.5V886H471L470.8 584.5z" />
    <glyph glyph-name="commercial_general_data_rise_black"
      unicode="&#xE03B;"
      horiz-adv-x="1024" d=" M366.2 740.7L221 595.5L251.5 565L282 534.5L375.5 628L469 721.5V118H555L555.2 419.7L555.5 721.5L649.3 628.5C700.9 577.3 743.6 535.3 744.2 535.1C745.4 534.7 762.7 551.7 788.1 578.1L805 595.8L658.9 740.6C578.5 820.3 512.5 885.6 512.1 885.8C511.8 885.9 446.1 820.6 366.2 740.7z" />
    <glyph glyph-name="commercial_general_mine_audit_black"
      unicode="&#xE03C;"
      horiz-adv-x="1024" d=" M229.5 917.9C202.5 915.1 181.3 900.4 170 876.9C161.8 859.7 162.5 895.6 162.5 512C162.5 128.4 161.8 164.3 170 147.1C181.7 122.7 202.6 108.8 231.8 106C238.4 105.4 294.2 105 378.3 105H514V179L375.3 179.2L236.5 179.5V844.5H787.5L787.8 678.3L788 512H862.1L861.7 683.3C861.4 875.2 862 860.2 854 876.9C842.4 901.1 821.7 915 792.9 918C780.5 919.2 241.6 919.2 229.5 917.9zM327 683V646H697V720H327V683zM327 512V475H583V549H327V512zM742.7 460.5C672.3 450.9 612.4 403.3 586.5 336.3C573.8 303.1 570.7 263.1 578.2 226.5C592.8 154.7 649.7 95.2 720.7 77.6C744.7 71.6 774.3 70 797.5 73.5C861.6 83 915.9 122.4 944.6 180.5C965.8 223.6 970.4 272.4 957.6 319.2C936.6 395.6 870.6 451.9 791.5 461C779.3 462.3 754.7 462.1 742.7 460.5zM792 398.3C857.4 387.5 905.4 328.3 902.6 262C900.6 212.9 873.5 170.3 830.3 148.2C809.5 137.6 793.3 133.7 770 133.6C741.6 133.5 718.7 140.3 695.8 155.6C664.6 176.3 643.5 209 637.4 245.9C634.8 261.7 635.8 283.8 639.8 299C648.4 332 667 358.7 694.4 377.1C724.2 397.2 756.6 404.2 792 398.3zM719 278V214H854V275H781V342H719V278z" />
    <glyph glyph-name="commercial_jx_home_academy_black"
      unicode="&#xE03D;"
      horiz-adv-x="1024" d=" M507.479 848.612L876.402 682.614A21 21 0 0 0 876.402 644.301L782.431 602.017V337.873C782.43 252.329 714.279 182.729 629.303 180.397L624.893 180.334H372.83C287.303 180.334 217.687 248.501 215.355 333.462L215.292 337.872V602.019L121.336 644.3A21 21 0 0 0 121.336 682.614L490.244 848.612A21 21 0 0 0 507.479 848.612zM719.415 573.661L507.48 478.287A21 21 0 0 0 490.259 478.287L278.308 573.66V337.873A94.523 94.523 0 0 1 369.286 243.413L372.83 243.35H624.892A94.523 94.523 0 0 1 719.352 334.328L719.415 337.873V573.66zM875.205 531.519V345.624H812.189V531.504H875.205zM498.845 783.423L232.307 663.457L498.861 543.507L765.416 663.458L498.861 783.423z" />
    <glyph glyph-name="commercial_jx_home_incentive_task_black"
      unicode="&#xE03E;"
      horiz-adv-x="1024" d=" M498.861 918.97C608.791 918.97 705.568 862.664 761.951 777.341A314.4 314.4 0 0 0 805.966 674.627C811.18 651.894 813.938 628.232 813.938 603.907C813.938 502.88 766.425 412.957 692.476 355.298V198.592A42.016 42.016 0 0 0 639.968 157.917L636.613 158.94L503.43 205.556L370.278 158.941A42.016 42.016 0 0 0 317.708 182.24L316.747 184.713A42.016 42.016 0 0 0 314.54 195.064L314.384 198.593V348.443A316.558 316.558 0 0 0 220.837 455.492A313.281 313.281 0 0 0 183.784 603.892C183.784 777.91 324.86 918.97 498.861 918.97zM498.861 288.814C455.806 288.815 414.8 297.448 377.4 313.076V228.21L503.414 272.321L629.461 228.194V317.062A313.927 313.927 0 0 0 498.86 288.815zM498.861 855.954C359.661 855.954 246.8 743.109 246.8 603.892A252.9 252.9 0 0 1 248.91 571.22A250.108 250.108 0 0 1 276.418 485.219A251.967 251.967 0 0 1 498.861 351.83C638.078 351.83 750.923 464.675 750.923 603.892C750.923 623.175 748.78 642.142 744.543 660.543A249.66700000000003 249.66700000000003 0 0 1 709.364 742.605A251.74599999999998 251.74599999999998 0 0 1 498.861 855.954zM481.99 777.389A32.09 32.09 0 0 0 526.21 767.23L572.211 693.814L651.36 677.163A32.113 32.113 0 0 0 665.316 670.39L667.27 668.672C679.905 656.195 680.078 635.872 667.648 623.238L611.344 565.973L624.246 481.926A31.865999999999996 31.865999999999996 0 0 0 622.907 466.786L621.82 463.952A32.09 32.09 0 0 0 579.38 447.77L499.097 483.754L418.674 447.74A32.09 32.09 0 0 0 403.881 444.983L400.841 445.298A32.09 32.09 0 0 0 373.839 481.753L386.332 565.94L330.122 623.206A32.09 32.09 0 0 0 322.198 636.723L321.568 639.307A32.09 32.09 0 0 0 346.615 677.147L428.552 693.8L471.37 766.488A32.075 32.075 0 0 0 479.453 775.625zM499.555 710.877L469.197 659.314A32.09 32.09 0 0 0 447.929 644.16L393.91 633.179L430.931 595.479A32.101 32.101 0 0 0 440.068 570.983L439.784 568.272L431.23 510.898L486.022 535.41A32.09 32.09 0 0 0 509.416 536.513L512.252 535.41L566.634 511.023L557.907 568.147A32.09 32.09 0 0 0 564.9 593.447L566.745 595.495L604.018 633.462L552.928 644.19A32.09 32.09 0 0 0 533.977 656.18L532.323 658.557L499.554 710.877z" />
    <glyph glyph-name="commercial_jx_home_search_order_black"
      unicode="&#xE03F;"
      horiz-adv-x="1024" d=" M724.579 424.17A143.72 143.72 0 0 0 846.255 203.938L897.905 152.288L852.74 107.126L801.09 158.774A143.72 143.72 0 1 0 724.58 424.152zM769.114 911.216C789.45 911.216 801.576 908.916 814.278 902.234C826.548 895.766 836.428 886.029 843.039 873.849C849.381 862.208 851.896 851.016 852.273 833.608L852.327 828.72V464.088H780.467V831.057L780.325 834.9L780.162 837.74L779.965 838.943L779.3 839.087L777.737 839.231L775.257 839.32L771.54 839.357L242.742 839.32L240.262 839.23L238.719 839.087L237.98 838.943L237.855 837.812L237.658 834.902L237.55 831.056V192.943L237.676 188.452L237.98 185.057L238.718 184.913L241.358 184.733L246.479 184.643H556.913V112.783H248.904C228.55 112.784 216.424 115.084 203.722 121.767A69.2 69.2 0 0 0 174.978 150.151C168.637 161.792 166.104 172.984 165.726 190.392L165.672 195.28V828.72C165.672 848.986 168.062 861.148 174.96 873.85A69.2 69.2 0 0 0 203.722 902.234C215.363 908.342 226.537 910.803 243.964 911.162L248.886 911.216H769.114zM724.579 360.304A79.854 79.854 0 1 1 724.579 200.596A79.863 79.863 0 0 1 724.579 360.322zM578.865 547.93V476.07H327.357V547.93H578.865zM690.643 715.596V643.736H327.357V715.597H690.643z" />
    <glyph glyph-name="commercial_jx_personal_official_black"
      unicode="&#xE040;"
      horiz-adv-x="1024" d=" M760.886 917.109L769.796 916.785C789.2 915.815 800.104 913.156 809.5 908.935L813.45 907.03A76.171 76.171 0 0 0 847.117 874.352L849.112 870.364C850.369 867.777 851.537 865.064 852.525 862.1L853.98 857.43C855.938 850.117 857.268 841.17 857.914 828.667L858.202 819.793L858.292 814.888L858.31 250.161C858.31 246.604 858.274 243.245 858.22 240.101L857.896 231.226C856.926 211.788 854.25 200.902 850.046 191.488L848.123 187.536A76.171 76.171 0 0 0 815.428 153.869L811.475 151.893C802.295 147.456 792.073 144.546 773.821 143.342L765.485 142.911L760.885 142.785L750.844 142.677H267.156L257.096 142.785A347.5129999999999 347.5129999999999 0 0 0 252.55 142.911L244.197 143.36C225.927 144.546 215.723 147.456 206.49 151.893L202.572 153.87A76.171 76.171 0 0 0 170.882 185.578L169.858 187.518L167.972 191.506C163.75 200.902 161.073 211.788 160.103 231.226L159.78 240.101A413.6600000000001 413.6600000000001 0 0 0 159.708 244.97L159.69 809.732C159.69 813.29 159.708 816.631 159.78 819.792L160.103 828.669C161.073 848.106 163.75 858.992 167.954 868.406L169.858 872.358L170.882 874.352A76.171 76.171 0 0 0 202.572 905.988L206.49 908.001C216.387 912.76 227.399 915.725 248.22 916.803L257.114 917.11L261.964 917.18H315.392V917.235H750.843C754.401 917.217 757.742 917.18 760.903 917.109zM750.843 845.357H554.9V563.739A13.886999999999999 13.886999999999999 0 0 0 532.103 553.068L435.164 634.288L338.19 553.085A13.886999999999999 13.886999999999999 0 0 0 315.374 563.703V845.375L267.138 845.357L259.378 845.285L252.801 845.069A187.913 187.913 0 0 1 249.928 844.926L245.04 844.53L242.975 844.315L239.598 843.794A7.473 7.473 0 0 1 236.454 842.644A4.491 4.491 0 0 1 234.262 840.434A7.635 7.635 0 0 1 233.274 838.208L233.094 837.309A67.934 67.934 0 0 1 232.34 831.829L231.98 826.943L231.677 820.96L231.621 817.51L231.55 809.732V250.162L231.622 242.346L231.819 235.789L231.963 232.933L232.34 228.047L232.825 224.167L233.095 222.602A7.473 7.473 0 0 1 234.262 219.46A4.42 4.42 0 0 1 235.718 217.681L236.454 217.25A7.635 7.635 0 0 1 238.682 216.28L239.598 216.118C241.053 215.812 242.85 215.56 245.041 215.345L249.946 214.968L255.946 214.681L263.114 214.555H754.886L762.072 214.699L768.036 214.969L772.958 215.344L776.803 215.83L778.42 216.1A6.647000000000001 6.647000000000001 0 0 1 780.593 216.747L781.545 217.25A4.491 4.491 0 0 1 783.755 219.46A7.635 7.635 0 0 1 784.707 221.668L785.174 224.202L785.66 228.03L786.019 232.933L786.324 238.933L786.432 246.12V813.757L786.324 820.96L786.037 826.925L785.659 831.847A83.663 83.663 0 0 1 785.427 833.913L784.887 837.291L784.527 838.854L783.756 840.434A4.491 4.491 0 0 1 781.545 842.645A7.635 7.635 0 0 1 779.318 843.614L776.82 844.064L772.958 844.547L768.054 844.89L762.072 845.213A294.05 294.05 0 0 1 758.658 845.285L750.826 845.357zM483.06 845.357H387.233V687.912L435.146 728.046L483.058 687.912V845.357z" />
    <glyph glyph-name="commercial_jx_profit_recruitment_task_black"
      unicode="&#xE041;"
      horiz-adv-x="1024" d=" M714.465 892.946C750.25 892.946 769.185 889.317 788.947 878.826A103.675 103.675 0 0 0 832.045 836.087C842.015 817.529 845.878 799.672 846.309 767.928L846.327 761.82V455.07L860.447 458.625A23.947 23.947 0 0 0 890.251 435.38V250.197L890.161 240.137L890.018 235.574L889.605 227.22C888.473 210.28 885.885 200.273 881.986 191.524L880.083 187.572A76.171 76.171 0 0 0 847.387 153.923C835.637 147.653 824.015 143.9 797.39 142.965L787.959 142.749H238.035L228.568 142.965C207.872 143.683 196.23 146.127 186.584 150.115L182.524 151.91L178.625 153.941A76.171 76.171 0 0 0 146.935 185.613L145.911 187.553L144.007 191.507C139.497 201.62 136.749 213.387 135.958 235.574L135.761 245.024L135.725 435.38A23.947 23.947 0 0 0 165.51 458.644L175.643 456.075V761.802C175.643 797.462 179.326 816.362 189.943 836.087A103.675 103.675 0 0 0 233.041 878.826C251.617 888.724 269.51 892.496 301.397 892.892L307.541 892.946H714.447zM818.374 373.976L512.988 297.373L207.585 373.976L207.602 246.156L207.746 238.968L208.016 233.005L208.196 230.4L208.625 225.999L208.879 224.22L209.148 222.621L209.507 221.076C209.65 220.7 209.867 220.286 210.297 219.496A4.42 4.42 0 0 1 211.77 217.734L212.507 217.285A7.635 7.635 0 0 1 214.717 216.316L215.65 216.136C216.62 215.957 217.735 215.778 219.028 215.616L223.412 215.184L228.837 214.86L235.412 214.645L243.21 214.573L786.827 214.59L794.013 214.735L797.121 214.86L802.583 215.184L806.947 215.614L808.78 215.867L810.343 216.118A10.007 10.007 0 0 1 811.888 216.495L813.47 217.285A4.42 4.42 0 0 1 815.248 218.76L815.697 219.495A7.635 7.635 0 0 1 816.649 221.723L817.116 224.203L817.583 228.082L817.978 232.987L818.23 238.969L818.374 246.155L818.392 373.975zM714.447 821.086H307.559C304.595 821.086 301.882 821.05 299.385 820.996L292.505 820.816C278.815 820.225 272.815 818.59 266.707 815.357A31.977000000000004 31.977000000000004 0 0 1 253.197 801.954C250.251 796.456 248.635 791.03 247.934 779.624L247.664 773.388L247.557 769.85L247.502 761.802V438.056L512.988 371.46L774.468 437.032V764.66C774.467 766.473 774.467 768.216 774.413 769.85L774.234 776.623L773.857 782.372A82.243 82.243 0 0 1 773.03 789.252L772.276 793.007A36.774 36.774 0 0 1 768.79 801.972A31.834 31.834 0 0 1 755.28 815.356C749.659 818.338 744.108 819.955 732.52 820.637L726.195 820.925L722.603 821.015L714.447 821.085zM564.889 585.836V513.994H341.333V585.854H564.89zM676.666 729.573V657.713H341.333V729.573H676.666z" />
    <glyph glyph-name="commercial_jx_tabbar_logo_black"
      unicode="&#xE042;"
      horiz-adv-x="1024" d=" M522.449 842.877A332.90400000000005 332.90400000000005 0 0 0 723.049 776.046L726.078 776.63C831.739 796.129 909.959 783.067 940.534 725.577C966.594 676.53 944.588 613.46 888.999 547.36L880.83 537.893L872.218 528.405A609.015 609.015 0 0 0 856.753 512.397L856.816 508.51C856.816 323.835 707.103 174.143 522.45 174.143C454.363 174.143 391.064 194.476 338.234 229.418L326.28 226.743C315.058 224.36 304.107 222.313 293.407 220.64L280.722 218.8A467.195 467.195 0 0 0 250.232 215.772L238.572 215.186C167.58 212.7 114.708 231.07 91.741 274.244C59.872 334.22 96.966 410.144 179.242 490.517L188.207 499.085A353.175 353.175 0 0 0 188.082 508.51C188.082 693.185 337.774 842.877 522.449 842.877zM761.146 431.438L750.55 423.748L743.967 419.067L730.551 409.747C728.294 408.2 725.995 406.673 723.696 405.126L709.82 395.913L702.757 391.314L688.379 382.224L673.75 373.196L658.808 364.25L651.243 359.863L635.904 351.065L620.294 342.37A701.221 701.221 0 0 0 612.393 338.087L604.453 333.824C599.123 331.024 593.795 328.202 588.487 325.464L572.603 317.378L556.701 309.582A449.07499999999993 449.07499999999993 0 0 0 548.843 305.78L533.065 298.38L517.392 291.276L501.802 284.505L494.07 281.182L478.647 274.808L463.35 268.748L457.1 266.344C477.936 260.724 499.837 257.735 522.45 257.735C634.044 257.735 728.629 330.648 761.146 431.438zM206.847 397.793L203.045 393.3C190.819 378.462 181.248 364.46 174.582 351.713C164.132 331.672 162.586 319.07 165.554 313.469C168.02 308.872 176.379 303.961 193.264 300.91C210.714 297.776 233.514 297.65 260.43 300.764A333.678 333.678 0 0 0 206.848 397.793zM522.449 759.286C383.937 759.286 271.674 647 271.674 508.51C271.673 433.862 304.274 366.822 356.038 320.888C420.78 339.592 493.087 369.288 565.206 407.636C645.12 450.12 716.34 498.75 770.361 546.523C752.034 667 648.005 759.286 522.45 759.286zM800.935 701.189L795.878 701.001A333.322 333.322 0 0 0 838.405 618.183C848.812 631.954 856.607 644.827 861.665 656.3C868.582 672.016 869.188 681.691 866.722 686.29C863.859 691.722 853.076 697.344 831.697 699.977A206.117 206.117 0 0 1 800.935 701.19z" />
    <glyph glyph-name="commercial_lanv_service_html_analysis_20"
      unicode="&#xE043;"
      horiz-adv-x="1024" d=" M317.44 860.16A153.6 153.6 0 0 1 163.84 706.56V317.44A153.6 153.6 0 0 1 317.44 163.84H706.56A153.6 153.6 0 0 1 860.16 317.44V706.56A153.6 153.6 0 0 1 706.56 860.16H317.44zM676.198 636.723L737.894 575.334L550.912 387.328L453.376 485.376L347.904 379.29L286.157 440.678L453.376 608.768L550.861 510.771L676.198 636.723z" />
    <glyph glyph-name="commercial_niu_data_effect_green"
      unicode="&#xE044;"
      horiz-adv-x="1024" d=" M486.5 938.3C432.8 933.9 398.8 926.3 354.5 908.9C245.9 866.3 157.7 778.1 115.1 669.5C95.7 620.1 86.8 576.3 85.3 522.5C83.7 464.4 93.4 409.7 115.1 354.5C157.7 246.1 246 157.7 354.2 115.2C493.9 60.3 649.2 81.1 768.5 170.5C821.3 210.1 864.3 261.7 893.9 321.2C970.9 475.2 947.9 660.3 835.8 790.5C798.5 833.8 753.9 868.5 702.8 893.9C642.1 924.3 576.9 939.4 509.6 938.8C499.1 938.7 488.7 938.5 486.5 938.3zM554 540.5V313H470V768H554V540.5zM711 476.5V313H626V640H711V476.5zM398 426.5V313H313V540H398V426.5z" />
    <glyph glyph-name="commercial_niu_data_expend_blue"
      unicode="&#xE045;"
      horiz-adv-x="1024" d=" M486.5 938.3C432.8 933.9 398.8 926.3 354.5 908.9C245.9 866.3 157.7 778.1 115.1 669.5C95.7 620.1 86.8 576.3 85.3 522.5C83.7 464.4 93.4 409.7 115.1 354.5C157.7 246.1 246 157.7 354.2 115.2C493.9 60.3 649.2 81.1 768.5 170.5C821.3 210.1 864.3 261.7 893.9 321.2C970.9 475.2 947.9 660.3 835.8 790.5C798.5 833.8 753.9 868.5 702.8 893.9C642.1 924.3 576.9 939.4 509.6 938.8C499.1 938.7 488.7 938.5 486.5 938.3zM767.8 593.9L772 589.3L757.2 574.8C749.1 566.7 705.6 524.4 660.6 480.7L578.6 401.1L517.3 462.1C483.5 495.6 455.5 523 455 523C454.2 523 401.8 471.6 331.3 401.6L305 375.5L298.4 382C294.8 385.6 281.5 399.1 268.9 412.1L246 435.8L350.1 538.6C407.4 595.2 454.6 641.5 455 641.5C455.5 641.5 483.5 614.1 517.4 580.6C554.5 544 579.5 520 580.3 520.4C580.9 520.7 611.2 550 647.5 585.4L713.5 649.9L738.5 624.2C752.3 610.1 765.5 596.4 767.8 593.9z" />
    <glyph glyph-name="commercial_niu_home_broadcast_blue"
      unicode="&#xE046;"
      horiz-adv-x="1024" d=" M159.1 852.9C125 848.5 97.2 823.7 87.3 789C85.6 782.8 85.5 771.7 85.5 512S85.6 241.2 87.3 235C96.3 203.5 118.9 181 150 172.8L158.5 170.5H426C681.8 170.5 693.8 170.6 701.3 172.3C728 178.6 749.2 195.8 760.5 220.4C767.5 235.5 767.3 233.5 767.9 297.6L768.5 355.6L819 325.8C846.8 309.4 872.9 294.3 876.9 292.2C884.3 288.6 884.6 288.5 895.9 288.5C906.8 288.5 907.9 288.7 914 291.6C922.1 295.5 928.5 301.2 932.7 308.1C939.4 319.3 939 305.8 939 514C939 637.4 938.6 704 937.9 706.9C935.5 717.6 927.2 728.9 917.7 734.4C908.3 739.9 893.9 741.5 883.3 738.1C880.1 737.1 852.9 723.2 822.8 707.2L768 678.2V728.1C768 769.8 767.7 779.4 766.4 785.8C762 807.2 748.3 827.3 729.8 839.6C722.3 844.6 714.3 848.1 703 851.3L695.5 853.5L430.5 853.6C284.8 853.7 162.6 853.4 159.1 852.9zM687.6 778.4C694.5 775.1 694 797.9 694 512S694.5 248.9 687.6 245.6C684.5 244.1 662.9 244 426.2 244H168.3L164.9 246.3C163.1 247.5 161 249.7 160.3 251C159.3 253 159 307.3 159 512.5C159 749.5 159.1 771.8 160.6 773.9C161.5 775.1 163.6 777 165.4 778.1C168.4 779.9 174.3 780 426.3 780C662.9 780 684.5 779.9 687.6 778.4zM865 515V384.9L862.7 386.2C861.4 386.9 839.8 399.6 814.7 414.4L769 441.3L769.2 518.2L769.5 595.1L816.5 620C842.4 633.7 863.8 645 864.3 645C864.7 645 865 586.5 865 515zM245.7 713C238.2 711.7 231.5 706.7 227.7 699.5C225.6 695.7 225.5 694.2 225.2 660.7C224.9 620 225.1 618 232.5 610.7C240.1 603.1 241.4 602.9 282.2 603.2C316.3 603.5 317.6 603.6 321.6 605.7C326.8 608.5 332.4 614.7 334.1 619.6C335.2 622.6 335.5 631.5 335.5 659C335.5 698.1 335.5 697.9 329.1 705.3C327.3 707.2 323.8 709.9 321.2 711.2C316.6 713.5 315.8 713.5 283.5 713.7C265.4 713.8 248.3 713.5 245.7 713z" />
    </font>
</defs>
</svg>
